<?xml version="1.0" standalone="no"?>
<!DOCTYPE svg PUBLIC "-//W3C//DTD SVG 1.0//EN" "http://www.w3.org/TR/2001/REC-SVG-20010904/DTD/svg10.dtd">
<svg xmlns="http://www.w3.org/2000/svg" xmlns:xlink="http://www.w3.org/1999/xlink" id="body_1" width="180" height="71">

<g transform="matrix(2.7272727 0 0 2.7272727 -0 0.045453858)">
    <path d="M12.67 12.18L12.57 12.18C 12.57 12.18 12.67 12.18 12.67 12.18C 14.24 12.02 16.1 11.87 17.82 11.76L17.82 11.76L18 11.76C 18.11 11.76 17.94 11.76 17.9 11.76C 17.859999 11.76 17.539999 11.76 17.57 11.96C 18.044256 11.901128 18.522789 11.884396 19 11.91C 18.92 12.24 18.64 12.07 18.48 12.07C 17.91 12.07 17.289999 12.2699995 16.63 12.34C 15.499999 12.47 14.159999 12.46 13.189999 12.67C 12.219998 12.88 11.409999 12.75 10.729999 12.97C 10.049998 13.190001 9.919998 13.860001 9.219998 13.77C 8.909998 15.26 8.019999 16.17 7.419998 17.380001C 7.377265 17.369802 7.3327312 17.369802 7.289998 17.380001C 6.9958105 18.296957 6.860528 19.257462 6.889998 20.220001C 6.889998 20.220001 6.829998 20.130001 6.819998 20.150002C 6.639998 20.400002 6.819998 21.03 6.819998 21.440002C 6.83298 21.693172 6.83298 21.946835 6.819998 22.200003C 6.819998 22.280003 6.7499976 22.270002 6.7299976 22.340002C 6.7099977 22.410002 6.7299976 22.570002 6.6599975 22.640001C 6.5899973 22.710001 6.8499975 22.830002 6.8899975 23.000002C 6.809069 22.960726 6.732057 22.91385 6.6599975 22.860003C 6.6599975 22.970003 6.5199976 23.140003 6.6599975 23.190002C 6.7999973 23.240002 6.6599975 23.100002 6.6599975 23.000002C 6.7635455 23.03457 6.840143 23.122658 6.8599973 23.230001C 6.689997 23.230001 6.769997 23.330002 6.789997 23.400002C 6.389997 23.580002 6.179997 23.960001 5.789997 24.160002C 5.499997 24.010002 5.539997 23.330002 5.5899973 22.930002C 5.479997 22.740002 5.1199975 22.810001 5.0299973 22.600002C 4.8553047 22.695187 4.658908 22.743423 4.459997 22.740002C 4.557613 22.592974 4.638134 22.435286 4.699997 22.270002C 4.529997 21.950003 4.449997 22.390003 4.339997 22.500002C 4.2299967 22.61 4.1899967 22.310001 4.0399966 22.270002C 3.7099967 22.380003 3.6199965 22.120003 3.3499966 22.200003C 3.1399965 22.120003 3.0699966 21.880003 2.7499967 21.900003C 2.7499967 21.770004 2.8199966 21.770004 2.7499967 21.640003C 2.3233442 21.252579 1.9560719 20.80444 1.6599966 20.310003C 1.6599966 20.170004 1.7499967 20.310003 1.7599967 20.220003C 1.7699966 20.130003 1.6799966 20.220003 1.5899967 20.220003C 1.3199967 19.640003 1.4699967 18.620003 1.0299966 18.220003C 0.6999966 18.220003 0.6699966 17.920004 0.3699966 17.890003C 0.3699966 17.800003 0.5099966 17.890003 0.5599966 17.890003C 0.6099966 17.890003 0.5599966 17.810003 0.5599966 17.730003C 0.9499966 18.100004 1.3899965 17.580004 1.2899966 17.200003C 1.2899966 17.110003 1.1799966 16.970003 1.0599966 17.110003C 0.9699966 16.890003 1.2799966 16.900003 1.1899966 16.710003C 1.6599966 16.710003 1.6199965 16.070004 1.6899966 15.780003C 1.7899966 15.780003 1.7899966 15.880003 1.7899966 15.980002C 2.1699967 15.730002 2.2599967 15.180002 2.4799967 14.750002C 2.4799967 14.650002 2.6399968 14.600002 2.6699967 14.490002C 2.9399967 13.740002 2.7799966 12.860002 3.1899967 12.270001C 3.0699968 12.680001 3.0399966 13.210001 2.9599967 13.660002C 3.1534116 13.197298 3.2552915 12.701483 3.2599967 12.200002C 3.3399966 12.200002 3.3299966 12.100001 3.3999968 12.060001C 3.4686341 11.633498 3.5791688 11.214806 3.7299967 10.810001C 4.0012527 10.0871315 4.169566 9.3297205 4.2299967 8.560001C 4.2299967 8.480001 4.1599965 8.560001 4.129997 8.470001C 4.099997 8.380001 4.2099967 8.380001 4.199997 8.330001C 4.189997 8.280001 4.059997 8.330001 4.199997 8.160001C 4.099997 8.160001 4.069997 8.070001 4.029997 7.930001C 4.159037 7.7876053 4.2698865 7.6297293 4.359997 7.460001C 4.3465858 7.336453 4.3163037 7.215325 4.2699966 7.100001C 4.359997 7.100001 4.4899964 7.100001 4.4999967 6.940001C 4.509997 6.780001 4.2299967 6.940001 4.029997 6.870001C 3.829997 6.8000007 4.029997 7.0700006 3.959997 7.200001C 3.889997 7.330001 3.869997 7.200001 3.769997 7.200001C 3.7291632 7.0595756 3.7291632 6.9104257 3.769997 6.770001C 3.639997 6.770001 3.709997 6.890001 3.5799968 6.870001C 3.4499967 6.850001 3.5799968 6.5500007 3.4199967 6.5100007C 3.2599967 6.4700007 3.4199967 6.810001 3.2799966 6.810001C 3.1399965 6.810001 3.1999967 6.620001 3.1399965 6.5100007C 3.0799963 6.4000006 2.8399966 6.290001 2.9099965 6.1100006C 2.7699964 6.1100006 2.6599965 5.9900007 2.6699965 5.7500005C 2.8735907 5.760047 3.0735936 5.807505 3.2599964 5.8900003C 3.2599964 6.0000005 3.1699965 6.03 3.1299963 6.1200004C 3.3099964 6.38 3.7199962 6.4100003 3.9299963 6.6500006C 4.079996 6.6500006 4.1499963 6.5100007 4.2799964 6.4800005C 4.333985 6.6067495 4.4160476 6.719586 4.519996 6.8100004C 4.636769 6.4871798 4.7139983 6.151399 4.749996 5.8100004C 4.7951384 5.826867 4.8448534 5.826867 4.889996 5.8100004C 4.7709374 5.701144 4.731188 5.5302205 4.789996 5.3800006C 4.789996 5.3000007 4.5899963 5.3800006 4.559996 5.3100004C 4.659996 5.0000005 4.769996 4.6800003 5.079996 4.5800004C 5.079996 4.51 4.999996 4.4600005 5.079996 4.4500003C 5.159996 4.44 5.1499963 4.4500003 5.179996 4.51C 5.469996 4.4300003 5.579996 4.1600003 5.769996 3.9200003C 6.7052507 2.9543982 7.7335854 2.0835 8.84 1.32C 9.150001 1.08 9.49 0.88000005 9.84 0.66C 10.190001 0.44 10.34 0.110000014 10.7 0C 10.79984 0.19813329 10.79984 0.4318667 10.7 0.63C 10.75 0.73 11.099999 0.58 10.96 0.77C 11.19 0.61 11.34 0.77 11.45 0.46999997C 11.55 0.54999995 11.34 0.60999995 11.389999 0.72999996C 11.531578 0.80401516 11.69047 0.83855677 11.849999 0.83C 12.639999 0.83 13.599999 0.88 14.599999 0.83C 16.06 0.83 17.89 0.49999997 18.73 1.3299999C 19.74926 1.1555777 20.790741 1.1555777 21.81 1.3299999C 22.51 1.5799999 23.4 1.6499999 23.65 2.19C 23.431238 2.7779932 23.17745 3.3523574 22.89 3.91C 22.89 4.02 22.98 4.02 22.96 4.14C 22.449987 4.3092804 21.91728 4.4003134 21.38 4.41C 21.29978 4.499954 21.263206 4.6206484 21.279999 4.74C 20.797928 4.793785 20.32015 4.8806534 19.85 5C 19.53 5.14 19.45 5.61 19.16 5.83C 18.869999 6.0499997 18.66 6.0499997 18.4 6.2599998C 18.388685 6.3462973 18.388685 6.4337015 18.4 6.5199995C 18.25 6.5199995 18.24 6.3899994 18.1 6.3799996C 17.76 6.45 17.51 6.2699995 17.18 6.2099996L17.18 6.2099996L15.8 5.91C 15.219051 5.724185 14.609005 5.646235 14 5.68C 14.589228 6.6282015 15.421304 7.4015827 16.41 7.92C 16.450037 7.98168 16.480389 8.049129 16.5 8.12C 17.094206 8.324279 17.729544 8.379227 18.35 8.28C 18.75 8.28 19.23 8.46 19.48 8.48C 19.646545 8.470934 19.813454 8.470934 19.98 8.48C 20.199999 8.48 20.34 8.669999 20.539999 8.709999C 20.539999 8.709999 20.669998 8.709999 20.71 8.709999C 20.75 8.709999 21 8.98 21.199999 9.009999C 21.15 9.169999 21.119999 9.369999 20.869999 9.339999C 20.8 9.2699995 20.869999 9.259999 20.869999 9.199999C 20.783434 9.113618 20.654177 9.0862 20.539999 9.129999C 20.539999 9.259999 20.72 9.129999 20.679998 9.299999C 20.639997 9.469999 20.47 9.299999 20.439999 9.389999C 20.609999 9.459999 20.439999 9.61 20.439999 9.73L20.439999 9.73L20.179998 9.73C 20.179998 9.73 20.179998 9.889999 20.179998 9.889999C 20.179998 9.889999 20.46 9.969999 20.419998 10.19C 20.259998 10.19 20.069998 10.19 20.059998 10.29C 20.173925 10.34224 20.29545 10.375998 20.419998 10.39C 20.52256 10.544393 20.609646 10.708519 20.679998 10.88C 20.361849 11.007758 20.022812 11.075565 19.679998 11.08C 19.779999 11.24 19.97 11.08 20.109999 11.21C 20.029999 11.31 19.739998 11.21 19.64 11.28C 19.54 11.349999 19.82 11.28 19.83 11.38C 19.423649 11.3572235 19.016354 11.3572235 18.61 11.38C 18.460001 11.5 18.43 11.75 18.140001 11.7300005C 18.140001 11.6 18.400002 11.650001 18.400002 11.47C 15.800001 11.8 12.640001 11.96 9.970001 12.16C 9.810001 12.16 9.550001 12.09 9.470001 12.26C 10.528949 12.260565 11.587187 12.203814 12.640001 12.09C 12.640001 12.09 12.640001 12.09 12.640001 12.09C 12.640001 12.09 12.67 12.14 12.67 12.18zM20.61 3.9400005C 20.54 4.0200005 20.61 4.0700006 20.61 4.1800003C 20.95 4.05 21.29 4.2400002 21.53 4.11C 21.251343 3.951035 20.927067 3.8911147 20.61 3.94zM20.480001 3.9400005C 20.480001 3.9400005 20.410002 3.9400005 20.410002 3.9400005C 20.410002 3.9400005 20.48 4 20.48 4zM21.810001 4.200001C 21.810001 4.200001 21.810001 4.200001 21.810001 4.200001zM18.220001 4.4000006C 18.44 4.4000006 18.980001 4.4000006 19.12 4.2600007C 18.809797 4.24555 18.500782 4.307353 18.22 4.44zM20.11 4.4000006C 20.11 4.4000006 20.04 4.4000006 20.04 4.4000006C 20.04 4.4000006 20.11 4.44 20.11 4.41zM6.26 5.24C 6.38 5.1299996 6.51 4.71 6.4 4.58C 6.4 4.78 6.19 4.88 6.26 5.24zM18.1 4.64C 18.43 4.64 18 4.56 17.86 4.64C 18 4.69 18 4.64 18.1 4.64zM17.6 4.64C 17.6 4.64 17.51 4.64 17.51 4.64C 17.51 4.64 17.59 4.71 17.6 4.67zM20 4.74C 19.64 4.74 19.82 4.91 20 4.74zM19 4.87C 19.09 4.87 19.33 4.93 19.33 4.7999997C 19.19 4.85 18.87 4.81 18.93 4.87zM18 4.93C 18 4.93 17.93 4.93 17.93 4.93C 17.93 4.93 18 5 18 4.93zM18.24 4.93C 18.03 4.93 18.17 5.04 18.24 4.93zM5.8 5.43C 5.8 5.43 5.6400003 5.5499997 5.7400002 5.6C 5.84 5.65 5.8 5.5099998 5.8 5.43C 5.98 5.54 6.07 5.1499996 6 5.0299997C 5.93 4.91 5.85 5.14 5.74 5.1699996C 5.6299996 5.1999993 5.79 5.29 5.76 5.43zM17.41 5.5299997C 17.48 5.5299997 17.55 5.5299997 17.55 5.43L17.55 5.43L17.41 5.43zM12.309999 7.41C 12.12 7.83 11.7699995 8.09 11.62 8.55C 11.936817 8.588146 12.257736 8.528846 12.54 8.38C 12.54 8.45 12.54 8.49 12.61 8.4800005C 13.2699995 8.4800005 13.61 8.4800005 14.2 8.4800005C 14.42 8.750001 15.01 8.63 15.29 8.55C 15.73 8.42 16.29 8.7 16.29 8.22C 15.649483 7.7753105 15.05637 7.2659693 14.52 6.7C 14.42 6.6299996 14.280001 6.62 14.18 6.5299997C 13.88 6.2799997 13.740001 5.8399997 13.43 5.6099997C 12.997832 5.5650268 12.562169 5.5650268 12.13 5.6099997C 12.2 5.7599998 12.13 5.8299994 12.2300005 5.97C 12.330001 6.11 12.06 5.97 12.06 6.1299996C 12.06 6.2899995 12.200001 6.3299994 12.2300005 6.4599996C 12.26 6.5899997 12.150001 6.4599996 11.990001 6.5299997C 11.978686 6.616297 11.978686 6.703703 11.990001 6.79C 11.990001 6.9 11.880001 6.88 11.85 6.96C 11.690001 7.62 11.43 8.04 11.360001 8.55C 11.73 8.2 11.94 7.73 12.27 7.41zM12 5.76L12.07 5.76C 12.07 5.76 12.07 5.76 12.07 5.6600003L12.07 5.6600003L12 5.6600003C 12 5.6600003 12 5.71 12 5.76zM11.65 6C 11.65 6.11 11.73 5.87 11.65 6zM5.82 8.34C 6.32 8.12 6.38 7.13 6.29 6.52C 6.15 7.15 6 7.73 5.82 8.34zM5.7200003 6.82C 5.7200003 6.82 5.7200003 6.82 5.7200003 6.82C 5.7200003 6.82 5.6600003 6.92 5.7200003 6.92C 5.78 6.92 5.7200003 6.86 5.7200003 6.82C 5.7200003 6.78 5.7200003 6.82 5.7200003 6.82C 5.7200003 6.82 5.8500004 6.6600003 5.8900003 6.5600004C 5.9300003 6.4600005 5.76 6.73 5.72 6.82zM5.4300003 7.1600003C 5.4300003 7.2700005 5.5200005 7.0200005 5.4300003 7.1600003zM11 8C 11 8.12 11.14 8 11 8C 10.98545 7.9682546 10.98545 7.931745 11 7.9C 11 7.78 11.11 7.7400002 11.23 7.7400002C 11.349999 7.7400002 11.32 7.5000005 11.33 7.3100004C 11.07 7.4300003 11.12 7.8500004 10.809999 7.9000006C 10.86 8.110001 10.639999 8.070001 10.74 8.2300005C 10.57 8.2300005 10.53 8.43 10.48 8.570001C 10.75 8.72 10.84 8.1 11 8zM11.26 8.26C 11.190001 8.37 10.9800005 8.45 11.09 8.570001C 11.348342 8.2909775 11.521787 7.944088 11.59 7.5700006C 11.44 7.77 11.37 8.05 11.25 8.24zM5 8.15C 5.1 8.15 5.11 8.04 5.17 7.9799995C 5 8 5 8.05 5 8.15zM4.7 8.28C 4.7799997 8.28 4.89 8.17 4.7999997 8.12C 4.7099996 8.07 4.63 8.16 4.66 8.28zM6.16 8.41C 6.16 8.349999 6.29 8.23 6.16 8.17C 6.0299997 8.110001 6 8.35 6.12 8.41zM5.89 9C 6.0299997 9 6.08 8.71 6.0299997 8.6C 6 8.83 5.87 8.83 5.89 9zM5.06 8.9C 5.06 9.04 5.06 8.78 5.06 8.9zM4.21 9.4C 4.21 9.589999 4.21 9.28 4.21 9.4zM15 9.73C 15.51 9.73 15.84 9.73 16.39 9.73C 15.931521 9.635134 15.458478 9.635134 15 9.73zM16.61 9.629999C 16.61 9.629999 16.54 9.629999 16.54 9.629999C 16.54 9.629999 16.64 9.66 16.64 9.63zM4.1800003 9.829999C 4.1800003 9.739999 4.1800003 9.659999 4.11 9.659999C 4.04 9.659999 4.1 9.87 4.21 9.83zM11.25 9.899999C 11.947351 9.915596 12.644435 9.858622 13.33 9.729999C 12.642736 9.718977 11.95606 9.775922 11.28 9.9zM18.73 10.389998L18.73 10.3L18.63 10.3C 18.605146 10.335899 18.614101 10.385148 18.65 10.410001C 18.685898 10.434854 18.735147 10.4258995 18.76 10.39zM19 10.3C 19 10.3 18.94 10.3 18.94 10.3C 18.94 10.3 19 10.32 19 10.3zM13.440001 10.49C 13.490001 10.61 13.910001 10.57 13.960001 10.49C 13.785238 10.453316 13.604763 10.453316 13.43 10.49zM14.7300005 10.49C 14.7300005 10.49 14.660001 10.49 14.660001 10.49C 14.660001 10.49 14.72 10.49 14.72 10.46zM14.1 10.49C 14.1 10.49 14.030001 10.49 14.030001 10.49C 14.030001 10.49 14.09 10.53 14.09 10.49zM17.41 11.05C 17.64 11.05 17.96 11.2 18.16 11.05C 18.08 11.05 17.93 11.05 17.9 11.05C 17.869999 11.05 18.119999 11.05 18.14 10.88C 17.884441 10.886574 17.632805 10.944382 17.4 11.05zM19.2 10.93L19.29 10.93C 19.29 10.87 19.29 10.85 19.2 10.860001zM9.610001 11.09C 10.0386915 11.1321945 10.471431 11.101768 10.89 11C 10.59 11 9.87 10.9 9.6 11.09zM14.400001 11.09C 13.800051 11.104102 13.20188 11.1609125 12.610001 11.26C 13.700001 11.26 14.830001 11.12 15.92 11.16C 15.419382 11.040329 14.90259 11.003175 14.39 11.05zM15.990001 11.16C 16.032839 11.161068 16.07049 11.1317835 16.08 11.09C 16.08 11.09 16 11.05 16 11.12zM16.150002 11.16C 16.408073 11.255743 16.691929 11.255743 16.95 11.16C 16.684914 11.095883 16.410114 11.082313 16.14 11.12zM17.350002 11.3C 17.630003 11.3 18.190002 11.360001 18.350002 11.110001C 18.1 11.25 17.58 11.11 17.34 11.26zM17 11.12C 17 11.12 17 11.12 17 11.12zM12.139999 11.12C 12.089999 11.12 12.039999 11.12 12.039999 11.12C 12.039999 11.12 12.13 11.16 12.15 11.12zM18.52 11.12C 18.52 11.12 18.52 11.12 18.52 11.12zM12.52 11.45C 12.580001 11.45 12.690001 11.45 12.660001 11.5199995C 12.290001 11.45 11.780001 11.41 11.6 11.679999C 12.29521 11.859955 13.02479 11.859955 13.72 11.679999C 13.876538 11.689009 14.033462 11.689009 14.190001 11.679999C 14.490001 11.679999 14.700001 11.369999 14.990001 11.49C 14.990001 11.559999 14.81 11.49 14.820001 11.59C 15.490001 11.46 16.45 11.38 17.140001 11.190001C 15.612268 11.195976 14.086235 11.29282 12.57 11.48zM4.120001 11.45C 4.290001 11.32 4.000001 11.3 4.120001 11.45zM9.780001 11.45C 10.135885 11.454489 10.491234 11.420965 10.84 11.349999C 10.64 11.4 10 11.32 9.83 11.48zM4 13.37C 4.21 13.37 4 13.59 4.07 13.7C 4.251462 13.452359 4.3558187 13.156681 4.3700004 12.849999C 4.3700004 12.849999 4.28 12.849999 4.28 12.849999C 4.4206114 12.406591 4.521019 11.951415 4.5800004 11.49C 4.347848 12.104025 4.1541395 12.731908 4 13.37zM11.75 11.5199995C 11.61 11.5199995 11.75 11.62 11.75 11.5199995C 11.75 11.419999 11.75 11.48 11.75 11.52zM8.86 11.69C 9.03 11.69 9.349999 11.69 9.429999 11.5199995C 9.264475 11.5476 9.095524 11.5476 8.929999 11.5199995C 9 11.58 8.86 11.63 8.86 11.69zM11.58 11.5199995C 11.58 11.5199995 11.51 11.5199995 11.51 11.5199995C 11.51 11.5199995 11.58 11.55 11.58 11.52zM4.73 11.809999C 4.73 11.759999 4.83 11.65 4.73 11.62C 4.63 11.59 4.66 11.8 4.73 11.81zM9.62 11.65C 9.62 11.65 9.62 11.65 9.62 11.65zM10.45 11.65C 10.45 11.65 10.45 11.65 10.45 11.65zM8.93 11.849999L9.070001 11.849999L9.070001 11.759999C 9 11.74 9 11.8 8.93 11.85zM4.3 14.79C 4.5 14.5 4.48 14 4.63 13.66C 4.7000003 13.66 4.63 13.78 4.77 13.75C 4.77 13.18 5.36 12.49 4.96 12C 4.6653404 12.910739 4.444624 13.843771 4.3 14.79zM7.54 12.18C 7.54 12.18 7.54 12.18 7.54 12.18C 7.54 12.18 7.54 12.14 7.54 12.18zM11.08 12.35C 11.519139 12.354217 11.956712 12.296995 12.38 12.18C 11.941129 12.18005 11.504127 12.237196 11.08 12.35zM10.75 12.35C 10.82 12.35 10.97 12.35 10.99 12.35C 11.009999 12.35 10.68 12.35 10.75 12.38zM7.42 12.35C 7.42 12.35 7.42 12.440001 7.42 12.440001C 7.42 12.440001 7.42 12.440001 7.42 12.35C 7.42 12.26 7.4 12.38 7.42 12.42zM10.59 12.35C 10.53 12.35 10.39 12.35 10.39 12.35C 10.39 12.35 10.59 12.46 10.59 12.38zM3.83 14L3.83 14.07C 3.9199998 14.13 3.9299998 13.96 3.83 13.98C 3.73 13.999999 3.86 14 3.83 14zM3.78 14.62C 3.96 14.62 4 14.22 3.85 14.13C 3.7779813 14.282595 3.7535887 14.453343 3.78 14.62zM4.14 14.29C 4.14 14.5 4.14 14.17 4.14 14.29zM3.5 16.29C 3.59 16.410002 3.6 16.140001 3.67 16.29C 3.67 16.880001 3.3000002 17.390001 3.43 17.87C 3.79 17.79 3.72 17.19 3.77 16.720001C 3.83 16.010002 3.96 15.200001 4 14.720001C 3.712622 15.193284 3.5412893 15.727842 3.5 16.28zM2.3899999 16.42C 2.4272428 15.870247 2.5279117 15.326634 2.6899998 14.8C 2.6899998 14.8 2.6899998 14.8 2.62 14.8C 2.44 15.23 2 15.93 2.39 16.41zM7.39 16.49C 7.5 15.98 7.77 15.49 7.8199997 15.01C 7.6212616 15.4798155 7.486718 15.97426 7.42 16.48zM1.5999999 17.32C 2.12 17.32 1.8299999 16.32 1.93 16C 1.74 16.39 1.81 16.87 1.63 17.31zM1.4599999 16.949999C 1.4599999 17.089998 1.4599999 16.82 1.4599999 16.949999zM2.46 18.22C 2.6932187 17.849056 2.8464835 17.43354 2.91 17C 2.75 17.3 2.4 17.81 2.48 18.21zM1.73 18.24C 1.79 18.35 1.82 18.119999 1.73 18.24zM2.81 19C 2.87 19.09 3.04 19.18 3.12 19.14C 3.1065874 18.927343 3.0137937 18.72748 2.86 18.58C 2.8582256 18.721375 2.8414652 18.862162 2.81 19zM2.1799998 19.13C 2 19 1.67 19 1.45 18.92C 1.57 19.09 2 19.13 2.18 19.09zM3.12 19.24C 3.12 19.24 3.06 19.24 3.05 19.24C 3.04 19.24 3.1 19.24 3.12 19.2zM6.45 23.24L6.45 23L6.36 23C 6.37 23.11 6.36 23.22 6.45 23.22zM6.52 23.35C 6.52 23.48 6.52 23.220001 6.52 23.35zM6.65 23.41C 6.58 23.52 6.76 23.34 6.65 23.41zM6.4500003 23.52C 6.4500003 23.640001 6.4500003 23.380001 6.4500003 23.52zM54.08 16.7C 53.960003 16.52 53.780003 16.78 53.68 16.6C 53.59 16.6 53.68 16.710001 53.68 16.77L53.68 16.77L51.84 16.77C 51.48 16.77 50.84 16.630001 50.75 16.77C 50.34 17.18 50.06 17.77 49.66 18.19C 48.943123 19.044128 48.146156 19.827698 47.28 20.53C 47.46 20.59 47.68 20.400002 47.77 20.27C 47.47 20.810001 46.66 21.11 46.05 21.460001C 45.59079 21.492786 45.12998 21.424519 44.7 21.26C 44.3 21.130001 43.93 20.78 43.47 20.630001C 43.33 20.630001 43.18 20.630001 43.050003 20.560001C 42.920006 20.490002 42.770004 20.380001 42.620003 20.330002C 41.83832 20.100235 41.016193 20.042242 40.210003 20.160002C 39.750004 20.160002 39.390003 20.380001 39.050003 20.420002C 38 20.47 37.52 19 37.39 18C 36.970078 17.639944 36.772224 17.084442 36.87 16.54C 36.8 16.480001 36.51 16.54 36.37 16.470001C 36.37 16.61 36.55 16.62 36.68 16.660002C 36.35295 16.739256 36.0149 16.762918 35.68 16.730001C 35.87844 16.84603 36.065884 16.979916 36.24 17.130001C 36.24 17.240002 36.170002 17.240002 36.070004 17.230001C 35.970005 17.220001 36.130005 17.340002 36.170002 17.36C 35.845207 17.452873 35.504566 17.476719 35.170002 17.43C 35.33 17.5 35.61 17.58 35.530003 17.79C 35.390003 17.79 35.360004 17.740002 35.22 17.79C 35.079998 17.84 35.460003 18.01 35.620003 18.050001C 35.620003 18.11 35.500004 18.11 35.49 18.19C 35.48 18.27 35.780003 18.01 35.820004 17.86C 35.820004 17.86 35.900005 17.86 35.890003 17.960001C 35.855946 17.96934 35.829338 17.995945 35.820004 18.03C 35.820004 18.03 35.910004 18.03 35.910004 18.03L35.910004 18.03L36 18.03C 36 18.1 35.9 18.03 35.93 18.17C 35.96 18.31 36.08 18.22 36.07 18.17C 36.07 18.37 36.14 18.75 36 18.93C 36.14 19.31 36.28 19.93 35.67 19.82C 35.67 19.82 35.739998 19.82 35.769997 19.89C 34.249996 20.4 32.17 20.18 30.379997 20.289999C 30.309998 20.289999 30.309998 20.369999 30.239998 20.39C 30.169998 20.41 30.309998 20.48 30.239998 20.55C 29.840609 20.527689 29.440062 20.561348 29.049997 20.65C 28.460829 20.887981 27.897831 21.186237 27.369997 21.539999C 27.20992 21.587679 27.045954 21.621141 26.879997 21.64C 26.089996 21.869999 25.249998 22.56 24.559998 21.939999C 24.369997 22.039999 24.229998 21.89 24.089998 21.81C 24.089998 21.74 24.229998 21.65 24.089998 21.609999C 23.949999 21.569998 24.089998 21.749998 23.999998 21.749998C 23.749998 21.749998 23.729998 21.249998 23.359999 21.419998C 22.945362 21.210747 22.513844 21.036802 22.07 20.899998C 21.936758 20.613844 21.768831 20.345161 21.57 20.099998C 21.47 20.319998 21.85 20.539999 21.83 20.659998C 21.81 20.779997 21.64 20.459997 21.53 20.359999C 21.420002 20.26 21.53 20.47 21.53 20.519999C 21.300669 20.334429 21.156347 20.063828 21.130001 19.769999C 20.920002 19.769999 21.130001 19.97 20.990002 19.96C 20.990002 19.72 20.830002 19.599998 20.990002 19.49C 20.920002 19.35 20.850002 19.42 20.690002 19.39C 20.690002 19.31 20.840002 19.3 20.950003 19.3C 20.950003 19.13 20.660002 19.3 20.450003 19.23C 20.540003 19.09 20.840002 19.23 20.920002 19.06C 20.740002 18.99 20.360003 19.199999 20.230001 18.97C 20.386547 18.97871 20.543453 18.97871 20.7 18.97C 20.7 18.58 20.37 18.4 20.44 18.07C 20.54 18.07 20.59 18.16 20.67 18.07C 20.491396 17.713408 20.402166 17.31874 20.41 16.92C 20.539999 16.85 20.56 16.98 20.72 16.98C 20.88 16.98 20.779999 16.83 20.779999 16.65C 20.88 16.65 20.869999 16.65 20.949999 16.65C 20.869999 16.55 21.019999 16.38 20.949999 16.32C 20.88 16.26 21.05 16.32 21.14 16.32C 21.181236 16.190426 21.204782 16.055876 21.21 15.92C 21.109999 15.75 20.88 15.74 20.779999 15.59C 20.679998 15.440001 20.839998 15.45 20.779999 15.32C 20.957369 15.338163 21.128317 15.396286 21.279999 15.49C 21.57 15.23 21.21 14.87 21.039999 14.73C 21.199999 14.73 21.14 14.58 21.21 14.54C 21.000664 14.290346 20.91277 13.960739 20.97 13.64C 21.07 13.64 20.97 13.88 21.109999 13.900001C 21.249998 13.920001 21.109999 13.72 21.109999 13.670001C 21.109999 13.620002 21.239998 13.810001 21.249998 13.930001C 21.469997 13.930001 21.469997 13.600001 21.719997 13.700002C 21.765749 13.547503 21.789324 13.3892145 21.789997 13.230001C 22.081572 12.8775215 22.271702 12.452321 22.34 12C 23.004557 10.393671 23.48106 8.715845 23.76 7C 23.89 6.31 24.26 5.43 23.67 4.92C 23.75 4.7000003 23.61 4.51 23.67 4.33C 23.73 4.1499996 23.85 4.0499997 23.93 3.8999999C 24.01 3.75 24 3.56 24.1 3.4299998C 24.2 3.2999997 24.48 3.1799998 24.36 2.9099998C 24.43 2.83 24.480001 2.9099998 24.550001 2.9099998C 24.944172 2.4741006 25.387066 2.0848913 25.87 1.7499999C 25.970001 1.7499999 25.970001 1.8199999 26.070002 1.8199999C 29.830002 1.05 33.84 2.19 37.31 2.6499999C 37.31 2.6499999 37.260002 2.6499999 37.25 2.7499998C 37.239998 2.8499997 37.67 2.7499998 37.88 2.8399997C 37.665718 2.9448965 37.42099 2.969724 37.190002 2.9099996C 37.013855 3.078898 36.772964 3.1628444 36.530003 3.1399996C 36.530003 3.1999996 36.460003 3.2799997 36.530003 3.3399997C 36.300003 3.5299997 35.800003 3.4599996 35.610004 3.6999998C 35.610004 3.7899997 35.690006 3.6999998 35.770004 3.6999998C 35.660004 3.8799999 35.840004 3.9199998 35.970005 3.9599998C 35.970005 4.0299997 35.870007 4.0499997 35.770004 4.0499997C 35.670002 4.0499997 35.830006 4.12 35.770004 4.22C 35.710003 4.3199997 35.480003 4.3199997 35.440002 4.4799995C 35.30263 4.4943757 35.167973 4.52804 35.04 4.5799994C 35.190002 4.7799993 34.74 4.8099995 34.61 4.9399996C 34.74 5.0699997 34.87 4.9399996 35.11 4.9399996C 34.455738 5.292682 33.73205 5.497499 32.99 5.5399995C 32.99 5.6699996 33.070004 5.6999993 33.18 5.6999993C 32.02 6.1799994 29.83 5.4399996 28.880001 6.129999C 28.898712 6.7325435 28.834784 7.3348093 28.69 7.919999C 28.76 7.9899993 28.980001 7.919999 29.04 7.9899993C 29.1 8.059999 29.150002 7.8499994 29.18 7.7599993C 29.470001 7.7599993 29.58 7.5399995 29.84 7.6599994C 29.97 7.589999 29.9 7.4399996 30.15 7.4199996C 30.4 7.3999996 30.15 7.4199996 30.15 7.5199995C 30.608746 7.413589 31.079262 7.366538 31.55 7.3799996C 32.39536 7.2544622 33.254635 7.2544622 34.1 7.3799996C 34.18 7.3799996 34.3 7.3799996 34.359997 7.3099995C 34.429996 7.6199994 34.909996 7.6599994 35.359997 7.7099996C 35.469997 7.5499997 35.129997 7.5999994 35.029995 7.5499997C 34.929993 7.5 35.269997 7.5499997 35.289993 7.4799995C 35.30999 7.4099994 35.169994 7.4199996 35.129993 7.3799996C 35.089993 7.3399997 35.269993 7.3799996 35.319992 7.3799996C 35.319992 7.72 35.82999 7.5599995 35.84999 7.87C 35.70999 7.7999997 35.679993 7.62 35.41999 7.68C 35.50999 7.8999996 35.35999 8.04 35.60999 8.15C 35.68999 8.15 35.60999 8.04 35.60999 8.009999C 35.60999 7.9799986 35.67999 8.009999 35.67999 8.009999C 35.67999 8.009999 35.85999 8.329999 35.67999 8.369999C 35.67999 8.549999 35.81999 8.629999 35.869987 8.769999C 35.869987 9.069999 35.67999 9.209998 35.639988 9.499998C 35.53999 9.499998 35.49999 9.419998 35.399986 9.399998C 35.352356 9.512174 35.288326 9.616648 35.209988 9.709998C 35.419987 10.089998 35.97999 10.369998 35.739986 10.999998C 35.639988 11.109998 35.239986 10.849998 35.269985 11.139998C 35.009575 11.132034 34.750465 11.179766 34.509987 11.279999C 33.61419 11.175562 32.706993 11.229723 31.829987 11.439999C 31.829987 11.539999 32.109985 11.389998 32.06999 11.539999C 31.932854 11.528541 31.795082 11.55265 31.669989 11.609999C 31.669989 11.729999 31.769989 11.709999 31.85999 11.709999C 31.85999 11.939999 31.62999 11.709999 31.45999 11.709999C 30.98999 11.709999 30.45999 11.949999 29.96999 11.98C 29.929668 11.989885 29.903608 12.0289755 29.90999 12.07C 29.80999 11.99 29.65999 12.07 29.56999 12.07C 29.47999 12.07 29.56999 12.16 29.56999 12.21C 29.56999 12.26 29.46999 12.21 29.30999 12.21C 29.14999 12.21 29.23999 12.45 29.16999 12.54C 29.09999 12.63 29.16999 12.46 29.16999 12.38C 28.97999 12.53 29.01999 12.71 28.939991 12.940001C 29.129992 12.940001 29.059992 12.750001 29.26999 12.8C 29.26999 12.940001 29.01999 12.940001 29.129992 13.14C 29.069992 13.200001 28.889992 12.9800005 28.939991 13.2300005C 28.82999 13.2300005 28.889992 13.09 28.76999 13.14C 28.64999 13.190001 28.939991 13.22 28.939991 13.33C 28.939991 13.44 28.939991 13.2699995 28.83999 13.33C 28.73999 13.39 28.83999 13.5199995 28.73999 13.66C 28.83999 13.809999 28.90999 13.61 29.09999 13.66C 28.99999 13.84 28.91999 13.83 28.939991 14.09C 28.650576 14.1553545 28.405123 14.345855 28.26999 14.610001C 28.17999 14.540001 28.26999 14.410001 28.26999 14.31C 28.06999 14.190001 27.99999 14.56 27.84999 14.47C 27.699991 14.38 27.84999 14.6 27.84999 14.64C 27.84999 14.68 27.76999 14.64 27.709991 14.570001C 27.649992 14.500001 27.709991 14.820001 27.51999 14.870001C 27.32999 14.920001 27.51999 14.81 27.51999 14.710001C 27.34999 14.650001 27.459991 14.870001 27.31999 14.850001C 27.189991 15.370001 26.97999 15.850001 26.84999 16.36C 27.01999 16.42 27.139992 16.18 27.379992 16.2C 27.379992 16.36 27.029991 16.27 27.01999 16.460001C 27.359991 16.62 27.66999 16.130001 27.869991 16.27C 27.91999 16.27 27.91999 16.16 27.969992 16.130001C 28.479992 16.070002 28.709991 15.740001 29.319992 15.800001C 29.283525 15.843498 29.234703 15.874885 29.179993 15.890001C 29.599993 16.180002 30.529993 15.800001 30.929993 16.130001C 30.999992 16.070002 31.169992 15.990001 31.259993 16.060001C 31.349993 16.130001 31 16 30.9 16C 30.963274 16.05019 31.04628 16.068125 31.124632 16.048536C 31.202986 16.028948 31.267786 15.974061 31.3 15.9C 31.41 15.969999 31.5 16.039999 31.66 15.969999C 31.59 16.05 31.66 15.969999 31.66 16.07C 32.14 16.07 32.18 15.92 32.66 15.969999C 32.66 16.029999 32.66 16.05 32.56 16.039999C 32.460003 16.029999 32.9 16.15 32.870003 16.039999C 33.200005 16.039999 33.54 16.179998 33.960003 16.179998C 34.040005 16.239998 33.74 16.179998 33.690002 16.249998C 34.08 16.369999 34.930004 16.549997 35.250004 16.249998C 35.250004 16.139997 35.020004 16.189999 35.020004 16.059998C 35.360004 16.059998 35.680004 16.209997 36.110004 16.189997C 36.190006 16.249996 35.890003 16.189997 35.840004 16.259996C 36.181084 16.390026 36.54542 16.447912 36.910004 16.429996C 37.040005 16.279997 37.100002 16.029997 37.240005 15.859997C 37.195084 14.3127165 37.353096 12.766219 37.710007 11.259996C 37.940006 9.259996 38.900005 7.9799967 39.170006 6.1099963C 39.300007 5.9699965 39.290005 5.6799965 39.500008 5.6099963C 39.49255 5.4836226 39.523956 5.357994 39.590008 5.249996C 39.410007 4.909996 39.590008 4.4399962 39.520008 4.249996C 39.570007 4.139996 39.730007 4.1699963 39.79001 4.079996C 39.85001 3.989996 39.63001 3.819996 39.79001 3.819996C 39.711327 3.7008598 39.6664 3.5626273 39.660007 3.419996C 39.74001 3.419996 39.820007 3.419996 39.850006 3.419996C 39.83869 3.3336987 39.83869 3.2462935 39.850006 3.159996C 39.960007 3.159996 39.960007 3.159996 39.950005 3.019996C 39.940002 2.8799958 40.090004 3.0899959 40.140003 3.019996C 40.190002 2.949996 40.140003 2.719996 40.000004 2.6199958C 40.125427 2.4241326 40.161777 2.1842217 40.100002 1.9599957C 40.319283 1.8381885 40.510166 1.6711649 40.660004 1.4699957C 41.020004 1.5999957 41.190002 1.9499958 41.490005 2.1599958C 41.852913 2.1407928 42.209805 2.2585664 42.490005 2.4899957C 42.610004 2.3899958 42.710007 2.2399957 42.820007 2.1299958C 43.490005 1.9599959 43.45001 2.5999959 43.38001 3.049996C 43.26001 3.049996 43.13001 3.1099958 43.08001 3.219996C 43.134647 3.310597 43.23429 3.3642514 43.340008 3.359996C 43.45001 3.359996 43.340008 3.2699962 43.340008 3.189996C 43.340008 3.1099958 43.410007 3.189996 43.480007 3.189996C 43.480007 2.629996 44.22001 2.999996 44.210007 3.359996C 44.210007 3.469996 44.100006 3.359996 44.140007 3.4999962C 44.180008 3.6399963 44.22001 3.6299963 44.280006 3.6899962C 44.19977 3.8520753 44.1096 4.00904 44.010006 4.159996C 44.590008 4.579996 43.890007 5.079996 43.540005 5.549996C 43.535145 5.603218 43.535145 5.6567736 43.540005 5.7099957C 43.430004 5.879996 43.260006 5.9799957 43.210003 6.109996C 43.120003 6.5799956 43.06 6.859996 42.97 7.2699957C 42.663956 8.77075 42.433655 10.28608 42.280003 11.809996C 42.31025 12.034086 42.27915 12.262186 42.190002 12.4699955C 42.190002 12.579995 42.300003 12.549995 42.280003 12.659995C 42.23727 12.649796 42.192738 12.649796 42.15 12.659995C 42.15 12.739995 42.15 12.749995 42.15 12.849995C 41.79 13.349995 41.97 14.169994 41.79 14.849995C 43.38 15.179995 45.39 15.399995 46.66 16.399994C 46.818157 16.32411 46.95545 16.210846 47.06 16.069994C 46.940002 15.819994 46.920002 15.579994 46.63 15.439994C 46.467247 14.969422 46.256115 14.517002 46 14.09C 46.043743 13.931561 45.98864 13.762313 45.86 13.66C 45.86 13.51 45.98 13.5199995 45.96 13.36C 45.903522 13.301963 45.82598 13.269224 45.745 13.269224C 45.664017 13.269224 45.586475 13.301963 45.53 13.36C 45.53 13.2 45.739998 13.179999 45.829998 13.099999C 45.813248 12.990637 45.813248 12.879362 45.829998 12.7699995C 45.829998 12.7 45.71 12.7 45.67 12.629999C 45.8 12.359999 45.839996 11.959999 45.6 11.829999C 45.69 11.709999 45.969997 11.759999 46.059998 11.639999C 46.289997 11.789999 46.629997 12.45 46.92 11.999999C 47.124924 12.175595 47.380814 12.280756 47.649998 12.299999C 47.749996 12.299999 47.649998 12.219999 47.649998 12.139999C 48.05 12.139999 48.46 12.079999 48.499996 11.709999C 48.719997 11.809999 48.959995 11.599999 49.189995 11.709999C 49.189995 11.569999 48.969994 11.639999 48.999996 11.469999C 49.229996 11.419999 48.859997 11.349999 48.699997 11.469999C 48.699997 11.389999 48.609997 11.349999 48.699997 11.24C 49.059998 11.24 49.28 11.57 49.6 11.5C 49.5 11.3 49.18 11.3 49 11.17C 49.37 10.99 49.76 11.34 50.16 11.34C 50.65322 10.367047 51.087353 9.365203 51.46 8.34C 51.46 7.7200003 52.09 7.34 51.92 6.78C 51.92 6.7000003 52.03 6.67 52.019997 6.55C 52.009995 6.4300003 51.839996 6.55 51.719997 6.55C 51.979996 6.4300003 52.35 6.01 52.149998 5.7200003C 52.26 5.7200003 52.28 5.7200003 52.339996 5.6600003C 52.079998 5.38 51.719997 5.4600005 51.339996 5.4900002C 51.339996 5.5600004 51.42 5.5600004 51.499996 5.5600004C 51.273777 5.620562 51.088833 5.7833157 51 6C 50.84 5.86 51.09 5.64 50.86 5.53C 51.05 5.4500003 51.09 5.23 51.16 5.03C 51.41 5.03 51.52 4.8 51.73 4.7000003C 51.51 4.4100003 51.02 4.63 50.8 4.8700004C 50.8773 4.478921 51.132397 4.146185 51.489998 3.9700003C 51.489998 4.07 51.35 4.03 51.35 4.1400003C 51.35 4.2500005 51.59 4.1400003 51.62 4.0400004C 51.649998 3.9400005 51.559998 3.9700005 51.48 3.9700005C 51.66 3.6500006 52.18 3.8800006 52.28 3.4800005C 52.14 3.4100006 51.62 3.4300005 51.48 3.6400006C 51.48 3.4300005 51.85 3.3800006 52 3.2400005C 52.15 3.1000004 52 3.1700006 52 3.1000004C 52.167377 3.1000881 52.3046 2.9672914 52.31 2.8000004C 52.434784 2.778367 52.54995 2.7190406 52.640003 2.6300004C 52.640003 2.5200005 52.470005 2.5800004 52.4 2.6300004C 52.4 2.4900002 52.600002 2.5700004 52.600002 2.4600003C 52.600002 2.3500001 52.29 2.2600002 52.2 2.3900003C 52.510002 1.8100004 53.87 1.9900004 54.09 1.2100004C 54.409775 1.0755464 54.770226 1.0755464 55.09 1.2100004C 55.53 1.0100003 56.39 0.7300004 56.74 1.2100004C 56.74 1.9100003 57.47 1.6600003 57.640003 2.2100005C 57.811592 2.175253 57.98841 2.175253 58.160004 2.2100005C 58.310005 2.4400005 58.160004 2.7300005 58.090004 2.9400005C 58.520004 3.0600004 58.370003 3.4000006 58.420006 3.7400005C 58.47001 4.0800004 58.810005 4.3600006 59.010006 4.6600003C 59.377056 5.257825 59.710907 5.8754463 60.010006 6.51C 61.160007 8.74 62.150005 11.110001 63.320007 13.32C 63.54001 13.549999 63.600006 13.94 63.890007 14.12C 64.354866 14.17017 64.79906 14.338894 65.18001 14.61C 65.26001 14.849999 65.060005 15.19 65.28001 15.299999C 65.28001 15.389999 65.21001 15.369999 65.18001 15.4C 65.15001 15.43 65.46001 15.54 65.44001 15.4C 65.54001 15.54 65.58001 15.73 65.77001 15.759999C 65.77001 15.839999 65.77001 15.949999 65.77001 15.989999C 65.77001 16.029999 65.58001 16.22 65.680016 16.39C 65.62002 16.49 65.460014 16.48 65.37002 16.56C 65.28002 16.64 65.540016 16.56 65.610016 16.56C 65.51002 16.81 65.51002 17.07 65.44002 17.289999C 65.47089 17.37523 65.518486 17.45343 65.58002 17.519999C 65.598236 18.109327 65.53429 18.698313 65.390015 19.269999C 65.73516 20.132418 65.848915 21.070065 65.72002 21.989998C 65.72002 21.989998 65.65002 21.989998 65.65002 21.989998C 65.44002 21.989998 65.37002 21.899998 65.250015 21.849998C 65.13001 21.8 65.110016 21.929998 65.01002 21.939999C 64.91002 21.949999 64.88002 21.819998 64.750015 21.81C 64.62001 21.800001 65.10001 22.23 64.820015 22.4C 64.60001 22.4 64.570015 22.15 64.42001 22.039999C 64.254776 22.309172 64.204346 22.633352 64.280014 22.939999C 64.18411 23.018751 64.04591 23.018751 63.950012 22.939999C 63.84001 22.939999 63.87001 23.069998 63.790012 23.099998C 63.21001 23.099998 63.18001 22.55 62.790012 22.409998C 62.880394 22.63199 63.024757 22.827911 63.21001 22.979998C 63.12001 23.249998 63.48001 23.499998 63.450012 23.709997C 63.350014 24.249998 62.66001 23.709997 62.530014 23.639997C 62.170013 23.579998 62.060013 23.849997 61.800014 23.639997C 61.390217 23.187984 61.052887 22.675245 60.800014 22.119997C 60.570015 21.719997 60.210014 21.449997 60.140015 21.119997C 59.750015 20.749996 59.640015 20.119997 59.140015 19.799997C 59.140015 19.509996 58.840015 19.479998 58.650013 19.369997C 58.64515 19.213055 58.563828 19.068415 58.43227 18.982702C 58.30071 18.89699 58.135544 18.88104 57.990013 18.939997C 57.990013 18.869997 58.080013 18.939997 58.060013 18.809998C 58.170013 18.899998 58.260014 18.809998 58.390015 18.809998C 58.720016 18.899998 58.840015 19.229998 59.080013 19.409998C 59.170013 19.409998 59.160015 19.269999 59.27001 19.269999C 59.060654 18.855734 58.703968 18.534716 58.27001 18.369999C 58.350014 18.179998 58.57001 18.48 58.670013 18.3C 58.576775 18.189808 58.460785 18.10111 58.330013 18.039999C 58.330013 17.89 58.43001 17.9 58.530014 17.88C 58.530014 17.699999 58.250015 17.82 58.170013 17.74C 58.09001 17.66 58.380013 17.74 58.360012 17.6C 58.31891 17.462482 58.20198 17.361145 58.060013 17.34C 58.060013 17.210001 58.210014 17.26 58.16001 17.08C 58.11001 16.9 58.03001 16.97 57.89001 17.01C 58.07001 16.92 57.950012 16.83 57.89001 16.75C 57.98001 16.75 58.07001 16.75 58.05001 16.65C 57.727966 16.5429 57.389084 16.495457 57.05001 16.51C 57.130013 16.43 57.34001 16.51 57.41001 16.37C 57.48001 16.230001 57.41001 16.26 57.310013 16.28C 57.48001 16.17 57.720013 16.140001 57.880013 16.02C 57.59001 15.81 57.350014 16.1 57.120014 16.18C 57.060013 16.18 56.980015 16.18 56.930016 16.18C 56.620014 16.25 56.430016 16.5 56.170017 16.61C 55.769917 16.722095 55.35025 16.74598 54.940018 16.68C 54.600018 16.68 54.350018 16.76 54.21002 16.58C 54.11002 16.58 54.00002 16.58 53.98002 16.68zM53.29 1.93C 53.350002 1.93 53.41 1.93 53.420002 1.8599999C 53.430004 1.7899998 53.350002 1.8599999 53.29 1.8599999zM53.850002 2.05L53.850002 2C 53.8 1.89 53.68 2.09 53.85 2.05zM53 2.26L53.1 2.26C 53.1 2.18 53.1 2.12 53 2.12zM52.65 2.36C 52.65 2.36 52.77 2.36 52.780003 2.36C 52.790005 2.36 52.67 2.27 52.67 2.36zM42.75 2.62C 42.89 2.62 42.97 2.8 43.15 2.81C 43.47 2.52 42.81 2.22 42.77 2.62zM58 2.88C 58 2.8000002 58 2.69 57.93 2.69C 57.86 2.69 57.86 2.91 58 2.88zM42.74 3C 42.850002 3 42.920002 2.92 42.81 2.9C 42.7 2.88 42.76 2.94 42.74 3zM43.47 3.55C 43.68 3.55 43.670002 3.37 43.73 3.25C 43.55 3.14 43.42 3.32 43.47 3.54zM53.16 3.55C 53.16 3.6299999 53.16 3.6599998 53.3 3.6499999C 53.44 3.6399999 53.3 3.5099998 53.2 3.5099998C 53.100002 3.5099998 53.19 3.56 53.16 3.54zM43.600002 4.25C 43.690002 4.09 43.600002 3.91 43.690002 3.69C 43.39 3.68 43.31 4.18 43.6 4.24zM51.840004 3.79C 51.840004 3.92 51.770004 3.9099998 51.770004 4.02C 51.950005 4.02 52.040005 3.73 52.270004 3.86C 52.200005 3.86 52.130005 3.86 52.130005 3.9499998C 52.272556 3.9715405 52.413044 4.0049906 52.550003 4.0499997C 52.550003 3.9899998 52.65 3.9699998 52.620003 3.8599997C 52.51167 3.832903 52.398335 3.832903 52.29 3.8599997C 52.29 3.8599997 52.29 3.8599997 52.29 3.7599998C 52.1 3.68 52 3.78 51.84 3.78zM52.690002 3.79C 52.690002 3.8799999 52.800003 3.86 52.86 3.8799999C 52.92 3.8999999 52.76 3.72 52.69 3.78zM35.560005 4.12C 35.560005 4.23 35.640007 3.9899998 35.560005 4.12zM51.930008 4.42C 52.11126 4.507059 52.302773 4.5708966 52.500008 4.61C 52.486008 4.4854507 52.45225 4.3639283 52.40001 4.25C 52.16 4.24 52 4.15 51.93 4.41zM51.67001 4.42C 51.770008 4.42 51.74001 4.42 51.840008 4.42C 51.940006 4.42 51.840008 4.31 51.70001 4.32C 51.693924 4.3387246 51.683662 4.355821 51.67 4.37zM51.44001 4.42C 51.42998 4.45258 51.42998 4.4874206 51.44001 4.52C 51.50001 4.52 51.50001 4.52 51.57001 4.52C 51.64001 4.52 51.49 4.29 51.44 4.34zM52.29001 4.7200003C 52.14598 4.64335 51.982162 4.6119804 51.820007 4.63C 51.82 4.77 52.22 4.71 52.29 4.64zM51.74001 4.92C 51.74001 5 51.74001 5.08 51.67001 5.08C 51.60001 5.08 51.44001 5.08 51.340008 5.08C 51.600006 5.33 52.11001 5.08 52.430008 5.2799997C 52.430008 5.08 52.210007 5.04 52.17001 4.85C 52 4.73 51.91 4.85 51.74 4.84zM42.65001 5.15L42.71001 5.15C 42.71001 5.15 42.71001 5.15 42.71001 5.06L42.71001 5.06L42.64001 5.06C 42.64001 5.06 42.63 5 42.65 5.07zM52 5.26C 52.098778 5.3228974 52.212925 5.3574862 52.33 5.36C 52.35 5.24 52 5.13 52 5.26zM41.68 5.36C 41.68 5.61 41.68 5.25 41.68 5.36zM42.54 5.73C 42.54 5.97 42.2 6.06 42.2 6.46C 42.4 6.46 42.37 6.19 42.54 6.13C 42 7 42.07 8.39 41.9 9.7C 41.9 10.13 41.72 10.61 41.710003 10.93C 41.63 11.99 41.420002 13.110001 41.450005 14C 41.320004 14.14 41.350006 14.43 41.350006 14.69C 41.540005 14.69 41.540005 14.9 41.710007 14.79C 41.910007 13.79 41.970005 12.79 42.11001 11.79C 42.25001 10.79 42.300007 9.6 42.51001 8.58C 42.753273 7.5678205 42.94023 6.542882 43.07001 5.51C 42.92 5.4 42.67 5.58 42.54 5.73zM51.11 5.53C 51.11 5.53 51.11 5.46 51.11 5.4300003C 51.11 5.4000006 51.05 5.51 51.11 5.53zM41.82 7.41C 41.82 7.41 41.75 7.41 41.75 7.41C 41.75 7.41 41.82 7.46 41.82 7.41zM35.33 7.91C 35.33 7.68 35.050003 7.72 34.86 7.68C 34.89 7.9 35.19 7.83 35.33 7.91zM53.660004 8.15L53.660004 8.21C 53.710003 8.31 53.770004 8.16 53.800003 8.12C 53.83 8.08 53.71 8.15 53.66 8.15zM52.4 10.86C 52.280003 10.86 52.32 11 52.24 11.03L52.24 11.03L52.24 10.889999C 52.070004 10.889999 52.09 11.11 51.980003 11.19C 52.070004 11.19 52.110004 11.19 52.280003 11.19C 52.45 11.19 52.390003 11.009999 52.4 10.86C 52.41 10.71 52.57 10.7 52.600002 10.759999C 52.630005 10.819999 52.530003 10.929999 52.600002 10.999999C 52.670002 11.069999 52.870003 10.789999 53.000004 10.759999C 52.919247 10.896348 52.85225 11.04039 52.800003 11.19C 52.940002 11.19 53.010002 11.11 53.06 11.19C 53.11 11.2699995 52.870003 11.19 52.870003 11.349999C 52.870003 11.509999 53.180004 11.349999 53.270004 11.289999C 53.350006 11.399999 53.630005 11.289999 53.770004 11.379999C 53.950005 11.049999 54.250004 10.789999 54.170006 10.289999C 54.3651 10.074315 54.502674 9.812927 54.570007 9.529999C 54.240005 9.669999 54.190006 10.109999 53.910007 10.289999C 53.680008 9.889999 54.460007 9.809999 54.31001 9.369999C 54.47001 9.369999 54.47001 9.119999 54.54001 8.969999C 54.425137 8.951692 54.307556 8.976633 54.210007 9.039999C 54.210007 8.939999 54.210007 8.859999 54.11001 8.869999C 53.977867 9.309396 53.752777 9.715238 53.45001 10.059999C 53.45001 9.709999 53.770008 9.45 53.88001 9.139999L53.88001 9.139999L53.88001 8.83C 53.88001 8.64 54.180008 8.24 53.97001 8.15C 53.81001 8.309999 53.820007 8.679999 53.55001 8.74C 53.55001 8.92 53.55001 9.11 53.380013 9.17C 53.380013 9.08 53.380013 9 53.240013 9C 52.864834 9.57246 52.581413 10.200029 52.4 10.86zM39.06 8.38C 38.99 8.49 39.170002 8.3 39.06 8.38zM53.45 8.64C 53.45 8.64 53.45 8.64 53.45 8.64C 53.56467 8.583645 53.638065 8.467757 53.64 8.34C 53.53 8.38 53.48 8.49 53.45 8.64zM33.08 8.45C 33.08 8.45 33.08 8.45 33.08 8.45zM54.15 8.78C 54.14421 8.813082 54.14421 8.846918 54.15 8.88C 54.22 8.88 54.22 8.83 54.29 8.88C 54.3025 8.842516 54.28909 8.801262 54.256935 8.778295C 54.22478 8.755327 54.181408 8.756019 54.15 8.78zM30.79 9.17C 31 9.2300005 31.11 9.17 31.390001 9.17C 31.32 9 30.9 9.11 30.79 9.17zM52.5 9.17C 52.43 9.24 52.28 9.4 52.33 9.5C 52.390003 9.4 52.5 9.33 52.5 9.17C 52.5 9.01 52.5 9.1 52.5 9.14zM32.82 9.4C 32.76 9.4 32.63 9.4 32.63 9.4C 32.63 9.4 32.82 9.45 32.82 9.37zM54.08 11.15C 54.24 11.15 54.390003 11.059999 54.480003 11.15C 54.4 11.299999 54.030003 11.15 53.99 11.349999C 54.5 11.249999 55.550003 11.349999 55.74 10.879999C 55.38 10.489999 55.230003 9.879999 54.820004 9.579999C 54.62 10.14 54.25 10.53 54.08 11.12zM32 9.8C 32.08 9.940001 32.51 9.88 32.57 9.8C 32.36 9.79 32.12 9.73 32 9.8zM35.05 10.39C 35.05 10.21 34.8 9.85 34.649998 9.83C 34.73887 10.032664 34.856773 10.221309 35 10.39zM33.92 10.160001L34 10.160001C 34 10.090001 34 10.050001 33.91 10.06zM51.68 10.300001C 51.81 10.300001 51.85 10.170001 51.75 10.160001C 51.717255 10.202922 51.690353 10.25 51.67 10.3zM51.54 10.650002C 51.54 10.560001 51.75 10.450002 51.61 10.390001C 51.6 10.49 51.45 10.58 51.53 10.65zM28.320002 10.650002C 28.320002 10.650002 28.320002 10.650002 28.320002 10.650002zM52.25 10.770001C 52.36 10.770001 52.33 10.650002 52.39 10.600001C 52.27 10.67 52.22 10.72 52.24 10.82zM51.42 10.770001C 51.42 10.770001 51.42 10.770001 51.42 10.770001C 51.42 10.770001 51.37 10.72 51.41 10.86zM26.639997 11.130001C 26.639997 11.020001 26.759998 10.770001 26.639997 10.730001C 26.542688 10.877813 26.5388 11.068342 26.63 11.22zM51.34 11C 51.34 11 51.34 11 51.34 11zM52.57 11.23L52.64 11.23C 52.64 11.23 52.64 11.23 52.64 11.129999L52.64 11.129999L52.54 11.129999zM55.079998 11.469999C 55.41 11.469999 55.739998 11.469999 55.809998 11.129999C 55.54774 11.175713 55.298615 11.278093 55.08 11.43zM28.589998 11.299999C 28.309998 11.299999 27.949999 11.239999 27.789999 11.469999C 28.377636 11.473907 28.964102 11.416937 29.539999 11.299999C 29.22683 11.2417 28.90696 11.228232 28.59 11.26zM51.87 11.469999C 51.95 11.469999 52.129997 11.469999 52.17 11.4C 52.21 11.33 51.88 11.33 51.87 11.43zM52.57 11.469999C 52.57 11.36 52.57 11.36 52.43 11.369999C 52.29 11.379998 52.47 11.43 52.57 11.43zM29.869999 11.469999C 29.16214 11.424728 28.451473 11.454899 27.75 11.559999C 27.75 11.91 27.65 12.179999 27.75 12.36C 27.92 12.36 27.75 12.2 27.82 12.17C 27.89 12.14 28 12.06 28 12C 28.41 11.86 28.95 11.85 29.35 11.7C 28.83 11.7 28.19 11.78 27.79 11.79C 27.93 11.57 28.320002 11.55 28.62 11.53C 29.140001 11.53 29.740002 11.53 30.2 11.53C 30.2 11.3 30 11.43 29.87 11.43zM29.369999 12.0199995C 29.429998 12.129999 29.46 11.889999 29.369999 12.0199995zM48.76 12.49C 49.07 12.49 49.34 12.49 49.449997 12.25C 49.20316 12.228897 48.957283 12.300167 48.76 12.45zM49.76 12.32C 49.809998 12.38 49.949997 12.38 49.92 12.25C 49.89 12.12 49.76 12.21 49.76 12.28zM50.539997 12.32C 50.639996 12.32 50.76 12.32 50.78 12.25C 50.8 12.18 50.58 12.21 50.54 12.28zM50.309998 12.32C 50.309998 12.32 50.239998 12.32 50.239998 12.32C 50.239998 12.32 50.31 12.28 50.31 12.25zM48.489998 12.45C 48.489998 12.45 48.489998 12.45 48.489998 12.45zM62.489998 12.5199995C 62.49629 12.473517 62.465824 12.429998 62.42 12.419999C 62.439014 12.438016 62.46384 12.448654 62.49 12.45zM28.679996 12.61L28.679996 12.679999C 28.769997 12.74 28.779997 12.57 28.679996 12.579999C 28.579996 12.589998 28.71 12.56 28.68 12.54zM51.299995 12.78C 51.729996 12.78 52.199997 12.849999 52.429996 12.679999C 52.07 12.71 51.58 12.49 51.3 12.71zM28.38 13C 28.55 13 28.74 13 28.779999 12.86C 28.819998 12.719999 28.64 12.92 28.609999 12.79C 28.579998 12.66 28.699999 12.79 28.71 12.72C 28.72 12.650001 28.71 12.6 28.57 12.63C 28.567656 12.776171 28.497429 12.912928 28.38 13zM63.18 13.69C 63.18 13.839999 63.25 13.98 63.420002 13.99C 63.54 13.7699995 63.170002 13.55 63.15 13.26C 62.983955 13.068581 62.84283 12.8568945 62.730003 12.63L62.730003 12.63L62.630005 12.63C 62.755196 13.013676 62.94087 13.374891 63.18 13.7zM53.82 12.839999C 53.88 12.839999 53.989998 12.839999 53.96 12.7699995C 53.93 12.7 53.82 12.79 53.82 12.85zM28.419998 13.169999C 28.419998 13.099999 28.419998 13.029999 28.329998 13.029999C 28.239998 13.029999 28.33 13.18 28.42 13.18zM62.75 13.23C 62.76327 13.203736 62.762867 13.172645 62.748917 13.146736C 62.734966 13.120827 62.709232 13.1033745 62.68 13.099999C 62.7 13.16 62.66 13.27 62.75 13.24zM28.61 13.23C 28.66 13.37 28.66 13.11 28.61 13.23zM28.050001 13.299999C 27.970001 13.409999 28.160002 13.219999 28.050001 13.299999zM62.989998 13.699999C 63.01087 13.527472 62.91205 13.362766 62.749996 13.299999C 62.767395 13.456947 62.860878 13.595297 63 13.67zM27.989998 13.799999C 28.089998 13.799999 28.139997 13.61 28.229998 13.699999C 28.139997 13.869999 27.899998 13.869999 27.919998 14.129999C 28.189999 14.069999 28.199999 13.759999 28.449999 13.699999C 28.449999 13.579999 28.519999 13.509999 28.449999 13.439999C 28.38 13.369998 28 13.53 28 13.77zM28.579998 13.469999C 28.579998 13.469999 28.579998 13.469999 28.579998 13.469999zM25.799997 17.109999C 25.799997 17.189999 25.799997 17.269999 25.799997 17.3C 25.939997 17.3 25.999998 17.3 26.109997 17.3C 26.567408 16.079565 26.902388 14.816693 27.109997 13.529999C 26.899998 13.529999 26.969997 13.879999 26.749996 13.829999C 26.589996 14.719999 26.229996 15.579999 26.159996 16.449999C 25.979996 16.449999 26.079996 16.71 25.899996 16.71C 26.126238 16.068468 26.228056 15.389674 26.199995 14.709999C 25.809996 14.919999 25.869995 15.369999 25.699995 15.939999C 25.529995 16.509998 25.339994 16.699999 25.439995 17.029999C 25.394777 17.100931 25.36103 17.17855 25.339994 17.259998C 25.399994 17.259998 25.409994 17.319998 25.409994 17.399998C 25.519318 17.417225 25.630669 17.417225 25.739994 17.399998C 25.79 17.3 25.75 17.12 25.83 17.08zM26.409998 16.71C 26.609999 16.57 26.599998 16.269999 26.669998 16.019999C 26.953777 15.203599 27.164604 14.363643 27.299997 13.509998L27.299997 13.509998L27.209997 13.509998C 27 14.6 26.64 15.66 26.44 16.68zM24.55 13.6C 24.55 13.6 24.55 13.6 24.55 13.6zM28.55 13.67C 28.55 13.78 28.63 13.53 28.55 13.67zM28.779999 13.84C 28.779999 13.84 28.779999 13.84 28.779999 13.84C 28.779999 13.84 28.779999 13.76 28.71 13.77C 28.64 13.780001 28.71 13.82 28.75 13.84zM27.419998 14.13C 27.539999 14.13 27.629997 13.95 27.649998 13.8L27.649998 13.8L27.559998 13.8C 27.55 14 27.39 14 27.39 14.13zM28.549997 13.86C 28.549997 13.98 28.629997 13.74 28.549997 13.86zM28.35 14L28.42 14L28.42 13.93L28.35 13.93zM28.220001 14.11C 28.27 14.11 28.330002 14.11 28.310001 14.04L28.310001 14.04L28.240002 14.04C 28.240002 14.04 28.23 14 28.22 14.07zM41.02 14.33C 41.12 14.39 41.12 14.18 41.02 14.24zM25.02 16.15C 24.91 16.359999 24.720001 16.76 24.83 16.98C 25.12 16.76 25.05 16.26 25.16 15.75C 25.27 15.24 25.73 14.7 25.49 14.26C 25.42 14.88 25.16 15.41 25.07 16.11zM21.32 14.7C 21.342262 14.64899 21.342262 14.59101 21.32 14.54L21.32 14.54L21.3 14.54C 21.3 14.58 21.3 14.65 21.37 14.66zM24.83 15.559999C 25.001402 15.429456 25.069906 15.203796 25 15C 24.934095 15.166318 24.89364 15.341621 24.88 15.52zM56.18 15.7C 56.267365 15.622631 56.305683 15.503837 56.28 15.389999C 55.62 15.74 54.559998 15.389999 53.989998 15.749999C 54.26 15.859999 54.789997 15.749999 55.079998 15.749999C 54.96 15.869999 54.609997 15.749999 54.449997 15.889999C 55.112057 16.133575 55.849277 16.059853 56.449997 15.69C 56.4 15.68 56.37 15.57 56.23 15.66zM24.79 15.929999C 24.79 15.809999 24.910002 15.709999 24.79 15.629999C 24.760115 15.719451 24.779068 15.818014 24.84 15.89zM43.79 15.7699995C 43.71 15.709999 43.52 15.599999 43.39 15.7C 43.5 15.67 43.72 15.89 43.8 15.73zM45.45 15.7699995C 45.45 15.889999 45.670002 15.919999 45.71 15.86C 45.749996 15.8 45.57 15.62 45.46 15.73zM25.37 16.189999C 25.37 16.06 25.560001 15.899999 25.460001 15.769999C 25.43 15.84 25.29 16 25.38 16.15zM24 15.82C 24 15.82 24 15.82 24 15.82zM45.83 15.92C 45.940002 15.92 46.010002 16.13 46.13 16.02C 46 16 45.84 15.78 45.79 15.92zM24.660002 16.58C 24.660002 16.4 24.920002 16.1 24.800001 15.99C 24.7 16.15 24.54 16.39 24.62 16.58zM32.600002 16.08C 32.600002 16.08 32.600002 16.08 32.600002 16.08zM54.600002 16.22C 54.920002 16.22 55.600002 16.349998 55.760002 16.13C 55.41 16.14 54.93 16 54.61 16.22zM31 16.15C 31 16.22 31.16 16.24 31.3 16.22C 31.4 16.46 31.96 16.22 32.53 16.22C 32.02721 16.113523 31.51041 16.089878 31 16.15zM25.28 16.22C 25.28 16.22 25.28 16.22 25.28 16.22zM32.82 16.22C 33 16.3 32.98 16.099998 32.82 16.22zM33.52 16.22C 33.52 16.22 33.420002 16.22 33.420002 16.22C 33.420002 16.22 33.54 16.25 33.55 16.22zM35.670002 16.22C 35.670002 16.22 35.570004 16.22 35.570004 16.22C 35.570004 16.22 35.69 16.25 35.7 16.22zM25.210003 16.58C 25.210003 16.48 25.350002 16.37 25.210003 16.28C 25.28 16.37 25.14 16.5 25.24 16.58zM57.72 16.35L57.79 16.35L57.79 16.28L57.72 16.28zM63.620003 16.4C 63.620003 16.91 64.100006 17.22 64.28001 17.66C 64.350006 17.82 64.28001 17.99 64.47001 18.06C 64.560005 17.789999 64.310005 17.59 64.310005 17.3C 64.04524 17.147528 63.934113 16.822697 64.05 16.539999C 63.93 16.55 63.76 16.4 63.65 16.44zM50 16.84C 50 16.7 50.12 16.68 50.09 16.51C 50.007835 16.549507 49.912163 16.549507 49.83 16.51C 49.29 17.51 48.690002 18.28 48.11 19.130001C 48.43 19.130001 48.87 18.730001 49.11 18.470001C 49.62377 17.902498 50.07627 17.282406 50.46 16.62C 50.34 16.62 50.34 16.550001 50.23 16.550001C 50.12 16.550001 50.1 16.79 50 16.84zM34.45 16.61C 34.530003 16.720001 34.84 16.730001 34.88 16.61C 34.73409 16.560472 34.57591 16.560472 34.43 16.61zM33.030003 16.61C 33.030003 16.61 33.030003 16.61 33.030003 16.61zM26.420002 16.730001C 26.420002 16.87 26.420002 16.61 26.420002 16.730001zM34.850002 16.730001C 34.850002 16.730001 34.750004 16.730001 34.750004 16.730001C 34.750004 16.730001 34.83 16.81 34.83 16.77zM35.61 16.800001C 35.690002 16.720001 35.5 16.720001 35.510002 16.800001C 35.520004 16.880001 35.6 16.83 35.59 16.84zM34.75 16.900002C 34.8 16.900002 34.85 16.900002 34.89 16.900002C 34.93 16.900002 34.75 16.87 34.73 16.94zM34.52 17.010002C 34.52 17.010002 34.45 17.010002 34.45 17.010002C 34.45 17.010002 34.5 17.08 34.5 17.05zM24.429998 17.060001C 24.349998 17.170002 24.539999 16.970001 24.429998 17.060001zM24.859999 17.320002C 24.859999 17.230001 24.859999 17.180002 24.789999 17.150002C 24.72 17.12 24.7 17.46 24.84 17.41zM35.75 17.180002C 35.75 17.290003 35.83 17.060001 35.75 17.180002zM28 17.41C 28.523005 17.407188 29.04485 17.360355 29.56 17.27C 29.036182 17.250961 28.512056 17.297998 28 17.41zM33.66 17.5C 32.50406 17.376614 31.3425 17.313194 30.18 17.31C 31.30945 17.430084 32.444206 17.4935 33.58 17.5zM25.06 17.5C 25.15 17.55 25.15 17.36 25.06 17.36C 24.97 17.36 25 17.41 25 17.48zM28.01 17.43C 27.81 17.34 27.83 17.54 28.01 17.43zM24.3 17.83C 24.439999 17.83 24.48 17.5 24.3 17.5C 24.27 17.61 24.2 17.67 24.22 17.81zM24.859999 17.56C 24.859999 17.68 24.949999 17.43 24.859999 17.56zM33.86 17.56C 33.86 17.56 33.79 17.56 33.79 17.56C 33.79 17.56 33.74 17.54 33.74 17.5zM34.12 17.56C 33.92 17.56 34.05 17.66 34.12 17.56zM34.62 17.66C 34.62 17.66 34.62 17.66 34.62 17.66zM24.22 18C 24.262838 18.001068 24.300491 17.971785 24.31 17.93C 24.31 17.93 24.2 17.9 24.22 18zM63.35 18C 63.149998 18.33 63.699997 18.46 63.649998 18.86C 63.909996 18.92 63.94 19.230001 64.17 19.32C 63.9 18.91 63.88 18.21 63.35 18zM26.89 18.5C 26.8 18.61 26.529999 18.5 26.49 18.69C 27.4 18.61 28.49 18.36 29.63 18.36C 30.13 18.36 30.72 18.54 31.15 18.36C 31.01 18.36 30.789999 18.36 30.96 18.27C 28.86048 17.97754 26.720951 18.260967 24.769999 19.09C 25.54 19.09 26 18.55 26.89 18.54zM35.329998 18.17C 35.329998 18.17 35.329998 18.17 35.329998 18.17C 35.329998 18.17 35.29 18.21 35.33 18.21zM35.399998 18.33L35.46 18.33C 35.46 18.33 35.46 18.33 35.46 18.24L35.46 18.24L35.4 18.24zM31.559998 18.26C 31.469997 18.26 31.269997 18.26 31.229998 18.26C 31.37 18.34 31.44 18.37 31.56 18.3zM35.82 18.26C 35.82 18.26 35.67 18.18 35.66 18.26C 35.65 18.34 35.8 18.43 35.82 18.33zM63.48 18.800001C 63.45089 18.568455 63.32333 18.360712 63.13 18.230001C 63.153496 18.482447 63.280132 18.714008 63.48 18.87zM32.23 18.26C 32.23 18.26 32.13 18.26 32.13 18.26C 32.13 18.26 32.21 18.37 32.23 18.33zM32.42 18.26C 32.42 18.26 32.35 18.26 32.35 18.26C 32.35 18.26 32.42 18.4 32.42 18.37zM32.609997 18.26C 32.609997 18.26 32.449997 18.26 32.449997 18.26C 32.449997 18.26 32.63 18.44 32.61 18.37zM63 18.63C 63 18.5 62.86 18.519999 62.9 18.369999L62.9 18.369999L62.800003 18.369999C 62.82 18.52 62.91 18.58 63 18.63zM31.43 18.47C 31.59 18.47 32.04 18.56 32.1 18.4C 31.92 18.44 31.55 18.32 31.45 18.47zM32.33 18.47C 32.260002 18.47 32.27 18.369999 32.160004 18.4C 32.050007 18.43 32.32 18.54 32.35 18.47zM35.97 18.47C 35.807102 18.419872 35.6329 18.419872 35.47 18.47C 35.62 18.48 35.88 18.55 36 18.47zM35.11 18.63C 35.11 18.83 35.49 18.81 35.420002 18.63C 35.280003 18.63 35.250004 18.679998 35.11 18.63C 35.149582 18.577305 35.21479 18.550451 35.28 18.56C 35.28 18.39 34.989998 18.5 34.98 18.56C 34.97 18.619999 35.09 18.62 35.13 18.63zM63.440002 19.689999C 63.280003 19.239998 62.95 18.96 62.760002 18.539999L62.760002 18.539999L62.660004 18.539999C 62.821514 18.991898 63.105404 19.390038 63.48 19.69zM30.090004 18.689999C 30.550003 18.689999 30.950005 18.749998 31.410004 18.689999C 30.994959 18.557945 30.550774 18.547535 30.13 18.66zM62.510002 18.929998C 62.510002 18.759998 62.410004 18.759998 62.340004 18.689999C 62.270004 18.619999 62.42 18.9 62.55 18.9zM35.850002 18.729998C 35.850002 18.729998 35.760002 18.729998 35.760002 18.729998C 35.760002 18.729998 35.89 18.73 35.89 18.7zM63.280003 19.089998C 63.280003 19.279999 63.4 19.299997 63.510002 19.349998C 63.620003 19.4 63.510002 19.479998 63.510002 19.55C 63.510002 19.62 63.61 19.599998 63.68 19.55C 63.59 19.349998 63.43 19.21 63.41 18.949999C 63.41 19.019999 63.26 18.949999 63.25 19.019999C 63.24 19.089998 63.12 18.649998 62.99 18.759998C 63.11 18.87 63.22 19.06 63.32 19.06zM29.94 19C 30.225937 18.901434 30.527817 18.857338 30.83 18.87C 30.67 18.63 30 18.69 29.94 19zM28.94 18.87C 29.019 18.950628 29.127125 18.996063 29.240002 18.996063C 29.352879 18.996063 29.461004 18.950628 29.54 18.87C 29.41 18.81 29.14 18.83 29 18.83zM35.27 19.17C 35.37 19.17 35.420002 19.28 35.57 19.27C 35.719997 19.26 35.57 19.130001 35.67 19C 35.53 18.83 35.3 18.85 35.3 19.13zM62.02 18.960001L62.09 18.960001L62.09 18.890001L62.02 18.890001zM25.5 21.45C 25.5 21.45 25.5 21.45 25.5 21.45C 25.715115 21.346142 25.913885 21.211382 26.09 21.050001C 26.3 21.050001 26.3 20.810001 26.56 20.85C 26.494768 20.94304 26.494768 21.066961 26.56 21.16C 27.428505 20.62291 28.39301 20.259523 29.4 20.09C 29.87172 20.077755 30.339478 20.000355 30.789999 19.86C 30.71 19.86 30.65 19.86 30.63 19.79C 31.113434 19.714264 31.60098 19.667513 32.09 19.650002C 32.32 19.650002 32.61 19.740002 32.75 19.560001C 32.14 19.310001 31.36 19.680002 30.75 19.560001C 30.8 19.470001 30.88 19.410002 30.88 19.36C 30.88 19.31 31.17 19.41 31.189999 19.300001C 31.143518 19.306292 31.1 19.275827 31.089998 19.230001C 31.569998 19.090002 31.969997 19.230001 32.39 19.090002C 32.213493 19.100533 32.036507 19.100533 31.859999 19.090002C 31.859999 18.990002 31.859999 19.010002 31.859999 18.930002L31.859999 18.930002L31.13 18.930002C 31.13 19.060001 31.23 19.040003 31.269999 19.090002C 31.309998 19.140001 31 19 31 19.13C 31 19.259998 31.1 19.13 31.1 19.199999C 30.92 19.199999 30.65 19.14 30.67 19.339998C 30.69 19.539997 30.85 19.339998 30.86 19.409998C 30.28 19.409998 29.86 19.719997 29.300001 19.669998C 29.496597 19.680033 29.684862 19.589666 29.800001 19.429998C 29.52 19.489998 29.210001 19.489998 29.170002 19.759998C 29.241146 19.74924 29.312843 19.775656 29.360003 19.829998C 28.090702 19.851557 26.844086 20.170061 25.720003 20.759998C 25.720003 20.699999 25.780003 20.669998 25.790003 20.619999C 25.456825 20.766956 25.164917 20.993614 24.940002 21.279999C 25.020002 21.509998 24.840002 21.539999 24.800003 21.749998C 25.210003 21.749998 25.290003 21.399998 25.620003 21.319998C 25.6 21.38 25.51 21.38 25.5 21.45zM63.21 19.75C 63.111538 19.409792 62.904297 19.111223 62.62 18.9C 62.657494 19.26591 62.880306 19.58691 63.21 19.75zM34.269997 19.06C 34.199997 19.06 34.219997 18.96 34.129997 18.99C 34.039997 19.02 34.25 19.14 34.27 19.06zM30.7 19C 30.7 19 30.630001 19 30.630001 19C 30.630001 19 30.7 19.06 30.7 19zM33.7 19.06L33.8 19.06C 33.8 19 33.8 18.98 33.7 18.99zM34.86 19.06C 34.86 19.23 35.18 19.24 35.22 19.13C 35.260002 19.019999 35.12 19 35 19C 35 19.14 35 19.13 34.87 19.13zM28.58 18.99C 28.51 18.99 28.36 18.99 28.34 18.99C 28.32 18.99 28.57 19.13 28.59 19.06zM32.88 19.09C 32.95 19.09 33.07 19.09 33.04 19.02L33.04 19.02L32.88 19.02zM34.39 19.09L34.39 18.99L34.3 18.99C 34.29 19.17 34.33 19.2 34.4 19.2zM61.11 19.13C 61.11 19.13 61.11 19.13 61.11 19.13C 61.11 19.13 61.34 19.529999 61.47 19.359999C 61.35617 19.27408 61.235806 19.19718 61.11 19.13C 61.11 19.13 61.11 19.13 61.11 19.13C 61.11 19.13 61.06 19.13 61.1 19.13zM29.52 19.32C 29.16 19.32 29.310001 19.43 29.52 19.32C 29.73 19.21 30.32 19.32 30.52 19.18C 30.23 19.17 29.62 19.06 29.51 19.32zM34 19.2C 33.91 19.310001 34.11 19.12 34 19.2zM32.410004 19.36C 32.410004 19.36 32.230003 19.24 32.180004 19.36C 32.130005 19.480001 32.34 19.5 32.39 19.36zM33.500004 19.300001C 33.500004 19.300001 33.430004 19.300001 33.430004 19.300001C 33.430004 19.300001 33.48 19.32 33.48 19.3zM33.000004 19.420002C 33.133236 19.412731 33.266773 19.412731 33.400005 19.420002C 33.36 19.27 33 19.34 33 19.42zM29.810003 19.460003L29.910004 19.460003C 29.910004 19.410004 29.910004 19.380003 29.810003 19.390003zM64 19.58C 64.08 19.58 64.08 19.39 63.93 19.42C 63.78 19.45 63.86 19.58 64 19.58zM25.89 19.58C 25.963581 19.586124 26.036297 19.560675 26.09 19.51C 26 19.49 25.87 19.47 25.87 19.56zM33.2 19.58L33.62 19.58C 33.56 19.41 33.26 19.53 33.18 19.56zM33.79 19.58C 33.79 19.7 33.79 19.44 33.79 19.58zM62.510002 19.74L62.510002 19.58C 62.48114 19.591677 62.448868 19.591677 62.420002 19.58C 62.416748 19.628035 62.44511 19.672604 62.49 19.69zM25.310001 19.8C 25.488493 19.804302 25.662523 19.743923 25.800001 19.63C 25.627222 19.603535 25.451 19.64669 25.31 19.75zM35.420002 19.699999C 35.600002 19.699999 35.97 19.8 36.06 19.63C 35.846973 19.602251 35.63087 19.609005 35.42 19.65zM61.36 19.8C 61.46 19.859999 61.46 19.65 61.36 19.699999zM63.58 19.74C 63.584972 19.83175 63.65825 19.90503 63.75 19.91C 63.772778 19.855623 63.772778 19.794378 63.75 19.74C 63.7 19.68 63.64 19.63 63.58 19.69zM26.440002 19.8C 26.330002 19.8 26.190002 19.8 26.180002 19.9C 26.277828 19.911364 26.375004 19.87399 26.440002 19.8C 26.440002 19.8 26.42 19.71 26.44 19.75zM35.530003 19.869999C 35.590004 19.869999 35.640003 19.869999 35.63 19.8L35.63 19.8L35.56 19.8C 35.56 19.8 35.53 19.79 35.53 19.82zM62.660004 19.939999C 62.660004 19.859999 62.660004 19.8 62.560005 19.8C 62.460007 19.8 62.56 19.9 62.66 19.89zM25.660004 19.869999C 25.660004 19.869999 25.660004 19.869999 25.660004 19.869999zM63.600002 20.74C 63.440002 20.74 63.260002 20.57 63.13 20.6C 63.64362 20.965124 64.08451 21.422976 64.43 21.95C 64.57 21.34 63.89 21.25 63.77 20.79C 63.811623 20.807224 63.858376 20.807224 63.9 20.79C 63.9 20.35 63.550003 20.070002 63.31 19.79C 63.24 19.880001 63.48 20.1 63.38 20.210001C 63.170002 20.130001 63.2 19.820002 62.95 19.79C 63 20.25 63.39 20.36 63.58 20.69zM25.350002 19.94C 25.435795 19.946085 25.520931 19.921253 25.590002 19.87C 25.47 19.83 25.35 19.79 25.33 19.89zM32.600002 19.87C 32.4 19.87 32.54 19.980001 32.600002 19.87zM25.87 20C 25.925272 20.000816 25.97749 19.974709 26.01 19.93C 25.93 19.87 25.87 19.9 25.87 20zM24.740002 20.56C 25.10577 20.45784 25.446306 20.280762 25.740002 20.039999C 25.33 20.11 24.82 20.09 24.74 20.52zM61.620003 20.49C 61.622482 20.312431 61.495106 20.15958 61.320004 20.13C 61.357727 20.281483 61.471264 20.402592 61.62 20.45zM24.710003 20.26C 24.800003 20.26 24.850002 20.26 24.880003 20.16C 24.910004 20.06 24.7 20.12 24.71 20.22zM61.760002 20.26C 61.760002 20.460001 61.910004 20.26 61.760002 20.26zM24.880001 20.72C 25.000002 20.609999 25.220001 20.599998 25.28 20.42C 25.16 20.51 24.8 20.54 24.88 20.71zM24.150002 20.63C 24.259073 20.605944 24.361504 20.558144 24.45 20.49C 24.332457 20.464386 24.211689 20.51672 24.15 20.62zM61.890003 20.859999C 61.890003 20.81 61.890003 20.699999 61.820004 20.72C 61.750004 20.74 61.84 20.83 61.89 20.85zM62.380005 21.22C 62.450005 21.099998 62.270004 21 62.240005 20.859999C 62.188995 20.882261 62.131012 20.882261 62.080006 20.859999C 62.11 21 62.27 21.09 62.38 21.21zM62.160004 21.22C 62.220005 21.05 62.040005 20.92 61.900005 20.859999C 61.94 21.05 62 21.21 62.16 21.24zM23.630005 21.16C 23.630005 21.16 23.630005 21.16 23.630005 21.16zM23.960005 21.49C 23.850004 21.38 23.850004 21.6 23.960005 21.49zM51.25 3.78C 51.25 3.78 51.25 3.78 51.31 3.78C 51.370003 3.78 51.26 3.78 51.25 3.78zM5.4900017 4.08C 5.600002 4 5.4200015 4.19 5.4900017 4.08zM4.8000016 4.5099998L4.870002 4.5099998L4.870002 4.58L4.8 4.58zM35.090004 4.6C 35.090004 4.6 35.090004 4.6 35.160004 4.6C 35.230003 4.6 35.12 4.6 35.09 4.6zM4.21 5.36C 4.21 5.36 4.21 5.36 4.28 5.36C 4.3500004 5.36 4.23 5.36 4.21 5.36zM34.4 5.36C 34.4 5.4500003 34.29 5.4300003 34.210003 5.4300003C 34.250217 5.3643627 34.323124 5.32599 34.4 5.33zM51.7 5.56C 51.7 5.56 51.760002 5.56 51.8 5.56C 51.839996 5.56 51.74 5.53 51.7 5.53zM52 5.56C 51.990494 5.601784 51.952843 5.6310687 51.91 5.63C 51.88 5.53 52 5.54 52 5.53zM52.07 5.56C 52.07 5.56 52.07 5.56 52.14 5.56C 52.21 5.56 52 5.62 52.07 5.57zM42.739998 5.63C 42.82 5.71 42.739998 5.8900003 42.6 5.8900003C 42.46 5.8900003 42.73 5.75 42.74 5.64zM51.739998 6.81C 51.8 6.72 51.89 6.81 51.879997 6.91C 51.869995 7.0099998 51.8 6.84 51.74 6.82zM12.809998 7.4C 12.859066 7.2792645 12.922886 7.1650634 13 7.06C 13.07 7.15 12.89 7.2999997 12.86 7.41zM4.14 7.15C 4.22 7.15 4.14 7.35 4.23 7.39C 4.32 7.43 4.12 7.26 4.14 7.15zM34.64 7.35L34.71 7.35L34.71 7.41L34.64 7.41zM35.04 7.35C 35.04 7.4 34.95 7.41 34.870003 7.41C 34.790005 7.41 35 7.35 35 7.35zM35.530003 7.35C 35.71152 7.346339 35.878918 7.4475546 35.960003 7.6099997C 35.80458 7.5451117 35.659664 7.4574885 35.53 7.35zM12.270002 7.41C 12.270002 7.41 12.320003 7.41 12.270002 7.41zM12.810002 7.41C 12.810002 7.41 12.810002 7.48 12.810002 7.48C 12.810002 7.48 12.77 7.41 12.81 7.41zM12.810002 7.48C 12.810002 7.48 12.810002 7.55 12.810002 7.55C 12.810002 7.55 12.74 7.48 12.77 7.48zM12.810002 7.55C 12.810002 7.55 12.810002 7.6200004 12.810002 7.6200004C 12.810002 7.6200004 12.71 7.55 12.74 7.55zM12.740003 7.65C 12.740003 7.65 12.740003 7.65 12.740003 7.65C 12.740003 7.65 12.7 7.65 12.67 7.65zM12.740003 7.65C 12.740003 7.79 12.640002 7.65 12.740003 7.65zM12.640002 7.81C 12.640002 7.81 12.640002 7.81 12.640002 7.81zM12.640002 7.81C 12.640002 7.86 12.640002 7.81 12.640002 7.81zM35.640003 7.95C 35.640003 7.95 35.640003 7.95 35.640003 7.95zM35.640003 7.95C 35.640003 7.95 35.640003 7.95 35.640003 7.95C 35.640003 7.95 35.52 8 35.53 8zM3.81 8.67C 3.8999999 8.72 3.74 8.79 3.81 8.9C 3.8799999 9.009999 3.73 8.9 3.6699998 8.9C 3.6099997 8.9 3.79 8.78 3.81 8.67zM3.94 9C 3.8600001 9 3.8200002 9 3.81 8.86C 3.8607743 8.89916 3.9047034 8.946468 3.94 9zM3.48 9C 3.48 9 3.48 9 3.48 9zM3.94 9C 4.18 9 3.99 9.18 3.94 9zM53.12 9.5C 53.239998 9.57 53.01 9.77 53.219997 9.76C 53.109997 9.91 53.129997 10.2 52.979996 10.320001C 52.949986 10.051924 52.99863 9.780907 53.12 9.54zM21.169998 9.9C 21.169998 9.9 21.169998 9.9 21.239998 9.9C 21.309998 9.9 21.2 9.92 21.17 9.94zM53 11C 53 10.58 53.29 10.48 53.36 10.15C 53.510002 10.509999 52.95 10.58 53.13 10.98C 53.09 10.94 53.09 11 53 11zM53.93 10.67C 53.93 10.55 53.93 10.81 53.93 10.67zM53 11C 53 11.14 52.91 11 53 11zM53.38 11C 53.47 11 53.32 11.11 53.38 11.16L53.38 11.16L53.690002 11.09C 53.690002 11.29 53.31 11.24 53.190002 11.190001C 53.070004 11.140001 53.37 11.12 53.4 11zM52.15 11.09C 52.15 11.09 52.15 11.09 52.15 11.09zM13.150002 11.45C 13.150002 11.45 13.150002 11.45 13.150002 11.45zM18.740002 11.62C 18.670002 11.73 18.520002 11.62 18.740002 11.62zM29.45 12.72C 29.45 12.72 29.45 12.72 29.45 12.72zM28.5 12.91C 28.5 12.91 28.5 12.91 28.5 12.91zM28.86 13.91C 28.86 13.7699995 28.86 14.03 28.86 13.91zM65.34 14.599999C 65.34 14.599999 65.34 14.599999 65.439995 14.599999C 65.53999 14.599999 65.4 14.6 65.36 14.6zM27.409996 15.119999C 27.409996 15.119999 27.479996 15.119999 27.479996 15.119999C 27.479996 15.119999 27.46 15.12 27.43 15.12zM27.579996 15.419999C 27.579996 15.419999 27.579996 15.279999 27.709995 15.279999C 27.839994 15.279999 27.69 15.44 27.6 15.42zM27.579996 15.419999C 27.579996 15.489999 27.489996 15.489999 27.479996 15.559999C 27.329996 15.48 27.269997 15.559999 27.179996 15.66C 27.108166 15.648127 27.05187 15.59183 27.039997 15.5199995C 27.164337 15.534146 27.29002 15.509708 27.399998 15.45C 27.399998 15.389999 27.309998 15.45 27.329998 15.349999C 27.349998 15.249999 27.399998 15.349999 27.489998 15.349999C 27.579998 15.349999 27.55 15.41 27.6 15.42zM1.2799969 15.489999C 1.4199969 15.709999 1.3599969 16.21 1.0899968 16.22C 1.0899968 16.349998 1.1999968 16.369999 1.1799968 16.519999C 1.1599969 16.669998 1.1299969 16.519999 1.0899968 16.519999C 1.0499967 16.519999 1.0899968 16.569998 1.0899968 16.609999C 1.0080067 16.456581 0.9506401 16.29123 0.9199968 16.119999C 1.0582447 15.917207 1.1851091 15.706881 1.3 15.49zM54.53 15.659999C 54.53 15.659999 54.53 15.659999 54.6 15.659999C 54.67 15.659999 54.57 15.64 54.55 15.66zM56.21 15.659999C 56.21 15.659999 56.05 15.769999 56.02 15.659999C 55.99 15.549999 56.14 15.63 56.23 15.66zM29.259998 15.729999C 29.259998 15.729999 29.259998 15.729999 29.329998 15.729999C 29.399998 15.729999 29.3 15.71 29.28 15.73zM27.6 16C 27.6 15.9 27.76 16 27.6 16zM27.6 16C 27.545107 16.051268 27.47478 16.082916 27.4 16.09C 27.42 16 27.47 15.93 27.6 16zM32.09 16C 32.09 16.07 31.880001 16 31.78 16C 31.68 16 32.05 16 32.09 16zM34.8 16C 34.8 16 34.8 16 34.8 16zM0.79999924 16L0.83 16L0.83 16.06L0.76 16.06zM66 16.06C 66 15.929999 66.1 16.06 66 16.06zM66 16.06C 66 16.109999 66 16.06 66 16.06zM1.4300003 16.199999C 1.4900002 16.199999 1.5000004 16.199999 1.5000004 16.269999C 1.5000004 16.339998 1.5000004 16.269999 1.5000004 16.269999C 1.5000004 16.269999 1.39 16.25 1.39 16.22zM0.7700003 16.39C 0.7700003 16.46 0.6500003 16.39 0.61000025 16.39C 0.57000023 16.39 0.69 16.37 0.73 16.41zM54.12 16.66C 54.12 16.66 54.12 16.66 54.12 16.66zM53.96 16.73C 53.96 16.68 53.96 16.73 54.059998 16.73C 54.159996 16.73 54 16.75 53.92 16.75zM54.26 16.73C 54.26 16.619999 54.35 16.85 54.26 16.73zM50 16.84C 50 16.84 50 16.84 50 16.84zM57.94 17.05C 57.94 17.05 57.94 17.05 58.03 17.05C 58.12 17.05 58 17 57.92 17.05zM25.849998 17.05C 25.849998 17.05 25.909998 17.05 25.849998 17.05zM1.079998 17.05C 1.079998 17.21 0.949998 17.05 1.079998 17.05zM49.67 17.119999C 49.75 17.189999 49.67 17.359999 49.53 17.359999C 49.567192 17.29493 49.607227 17.23154 49.65 17.17zM58.07 17.119999L58.14 17.119999L58.14 17.189999L58.07 17.189999zM36.22 17.74C 36.206425 17.783329 36.16536 17.812075 36.120003 17.81C 36.120003 17.81 36.13 17.83 36.2 17.83zM35.91 17.88C 35.91 17.88 35.91 17.88 35.91 17.88C 35.91 17.88 35.89 18 35.89 18zM0.53 18.1C 0.53 18.1 0.53 18.1 0.59999996 18.1C 0.66999996 18.1 0.55 18.1 0.53 18.1zM58.289997 18.23L58.359997 18.23L58.359997 18.3L58.289997 18.3zM28.289997 18.33C 28.14022 18.386986 27.97988 18.410868 27.819998 18.4C 27.961735 18.297144 28.14513 18.270945 28.31 18.33zM27.039997 18.5C 27.039997 18.5 27.229998 18.39 27.269997 18.5C 27.309996 18.61 27.17 18.52 27.06 18.5zM26.869997 18.5C 26.869997 18.43 26.999996 18.5 27.039997 18.5C 27.079998 18.5 27 18.51 26.89 18.54zM21.749996 20.7C 21.799995 20.59 21.829996 20.84 21.749996 20.7zM22.079996 20.810001C 22.079996 20.810001 22.079996 20.880001 22.079996 20.880001C 22.079996 20.880001 21.919996 20.830002 21.919996 20.740002C 21.919996 20.650002 22 20.87 22.1 20.85zM26.079996 21.010002C 25.859997 21.010002 26.079996 20.770002 26.079996 21.010002zM35.4 22.3C 35.33 22.369999 35.4 22.47 35.49 22.47C 35.58 22.47 35.59 22.22 35.420002 22.269999C 35.420002 22.05 35.710003 22.019999 35.890003 21.939999C 35.750004 22.069998 35.890003 22.119999 35.99 22.109999C 35.893215 22.201372 35.762836 22.248455 35.63 22.239998C 35.63 22.509998 35.88 22.289997 35.99 22.239998C 35.99 22.439999 36.11 22.789997 35.850002 22.929998L35.850002 22.929998L35.850002 23.329998C 35.850002 23.399998 35.710003 23.409998 35.690002 23.499998C 35.91975 24.081358 35.777794 24.743828 35.33 25.179998C 35.2 25.179998 35.2 25.039999 35.09 25.009998C 34.384663 25.135672 33.689476 25.312813 33.010002 25.539999C 32.940002 25.539999 32.940002 25.49 32.920002 25.47C 32.160004 25.47 31.340002 26.029999 30.700003 25.73C 30.331968 25.782375 29.967821 25.859215 29.610003 25.96C 29.500002 25.96 29.540003 25.839998 29.440002 25.83C 29.340002 25.820002 28.960003 26.09 28.780003 25.89C 28.900003 25.89 29.120003 25.96 29.110003 25.8C 28.777796 25.76129 28.44221 25.76129 28.110003 25.8C 27.980003 25.74 27.950003 25.59 27.780003 25.609999C 27.840002 25.539999 28.040003 25.609999 28.080002 25.509998C 27.79 25.399998 27.510002 25.609999 27.220001 25.609999C 27.090002 25.609999 27.220001 25.519999 27.160002 25.47C 26.595713 25.49833 26.030016 25.474897 25.470001 25.4C 25.38724 25.411953 25.315935 25.464495 25.28 25.539999C 25.140726 25.450577 24.973618 25.415022 24.810001 25.439999C 24.810001 25.439999 24.87 25.439999 24.880001 25.369999C 24.69 25.179998 24.54 25.55 24.250002 25.369999C 24.360003 25.05 24.870003 25.269999 25.100002 25.039999C 24.810001 25.039999 24.430002 25.13 24.100002 25.039999C 24.500002 24.939999 25.010002 24.81 25.320002 25.039999C 25.45 25.039999 25.320002 24.949999 25.320002 24.839998C 25.728998 24.854856 26.135996 24.776194 26.510002 24.609999C 27.103458 24.586538 27.687092 24.45081 28.230001 24.21C 28.12 23.929998 27.710001 24.33 27.640001 24.07C 27.460001 24.32 26.920002 24.199999 26.710001 24.4C 26.898449 24.434334 27.091553 24.434334 27.28 24.4C 27.140001 24.55 26.86 24.46 26.69 24.529999L26.69 24.529999L26.69 24.439999C 26.418692 24.516998 26.131311 24.516998 25.86 24.439999C 26.230001 24.279999 26.86 24.359999 27.18 24.14C 26.89 24.09 26.53 24.32 26.33 24.05L26.33 24.05L26.33 24C 26.653708 23.884197 26.988993 23.80373 27.33 23.76C 26.97 23.61 27.58 23.65 27.73 23.53C 27.146622 23.586414 26.56831 23.686699 26 23.83C 26 23.69 26.25 23.78 26.33 23.69C 26.18 23.58 25.99 23.79 25.84 23.69C 25.89 23.51 26.36 23.630001 26.27 23.390001C 26.36879 23.367998 26.47121 23.367998 26.57 23.390001C 26.57 23.390001 26.51 23.45 26.5 23.490002C 26.73 23.54 26.69 23.310001 26.9 23.320002C 26.82 23.460001 27.109999 23.320002 27.199999 23.320002C 27.289999 23.320002 27.13 23.270002 27.07 23.250002C 27.675568 22.977888 28.320065 22.802423 28.98 22.730001C 29.08 22.730001 29.119999 22.62 29.17 22.560001C 30.52 22.250002 31.72 21.760002 33.12 21.480001C 33.469997 21.7 34 21.140001 34.44 21.480001L34.44 21.480001L34.44 21.640001C 34.6 21.77 34.73 21.750002 35 21.740002C 35 21.890001 34.74 21.820002 34.65 21.900002C 34.56 21.980001 34.870003 21.900002 34.74 21.970001C 34.61 22.04 34.510002 22.080002 34.38 22.170002C 34.510998 22.2693 34.54171 22.453585 34.45 22.590002C 34.780003 22.440002 34.88 22.650002 35.18 22.500002C 35.18 22.440002 35.18 22.390001 35.11 22.400002C 35.04 22.410002 35.18 22.400002 35.21 22.330002C 35.239998 22.260002 35.37 22.3 35.4 22.3zM34.210003 22.07C 34.397102 22.070724 34.579456 22.011108 34.730003 21.9C 34.53915 21.866222 34.344044 21.930008 34.21 22.07zM33.38 22.27C 33.190002 22.34 32.940002 22.4 32.920002 22.53C 33.27 22.34 33.820004 22.34 34.100002 22.070002C 33.854767 22.11613 33.61389 22.18304 33.38 22.27zM30.740002 22.34C 30.850002 22.34 31.070002 22.34 31.100002 22.18C 30.958181 22.151295 30.813728 22.215496 30.74 22.34zM35.960003 22.56C 35.960003 22.48 35.960003 22.42 35.860004 22.42C 35.760006 22.42 35.86 22.58 36 22.56zM29.470003 22.73C 29.550003 22.73 29.700003 22.73 29.700003 22.63C 29.700003 22.529999 29.48 22.63 29.47 22.73zM30.740004 22.73C 30.648848 22.702036 30.550295 22.738995 30.500004 22.82C 30.633339 22.82 30.713339 22.79 30.740004 22.73C 30.740004 22.73 30.72 22.7 30.74 22.73zM28.52 23C 28.6 23 28.68 23 28.68 22.9C 28.68 22.8 28.53 22.89 28.52 23zM28.52 23.14C 28.597904 23.149076 28.67338 23.109354 28.710001 23.039999C 28.649374 23.024696 28.585615 23.048607 28.55 23.1zM29.08 23.33C 29.289999 23.33 29.51 23.33 29.6 23.17C 29.48 23.07 29.15 23.13 29.11 23.29zM27.85 23.5C 27.960001 23.73 28.57 23.58 28.61 23.33C 28.42 23.37 28.12 23.39 27.88 23.46zM33.31 23.33C 33.31 23.33 33.24 23.33 33.24 23.33C 33.24 23.33 33.34 23.33 33.34 23.29zM33.02 23.47C 33.12 23.47 33.19 23.47 33.22 23.369999C 33.156685 23.358135 33.09185 23.381018 33.05 23.43zM26.79 23.64C 26.79 23.64 26.720001 23.64 26.720001 23.64C 26.720001 23.64 26.82 23.62 26.82 23.6zM32.32 23.73C 32.17 23.73 32.04 23.73 32.02 23.869999C 32.100002 23.8 32.29 23.869999 32.32 23.73C 32.35 23.59 32.54 23.73 32.579998 23.64C 32.500587 23.639553 32.422054 23.656626 32.35 23.69zM35.56 23.73C 35.640003 23.73 35.63 23.66 35.66 23.63C 35.69 23.599998 35.59 23.65 35.59 23.72zM27.560001 23.67C 27.560001 23.67 27.490002 23.67 27.490002 23.67C 27.490002 23.67 27.6 23.69 27.6 23.66zM27 24C 27.1 24 27.26 24 27.26 23.93C 27.167849 23.922586 27.075974 23.947323 27 24zM26.5 24.14C 26.651432 24.050123 26.823914 24.00183 27 24C 26.91 23.88 26.55 24 26.53 24.09zM30.31 25.4C 30.652271 25.36336 30.988382 25.282692 31.31 25.16C 31.539999 25.16 31.85 25.16 31.97 24.97C 31.419441 25.063427 30.875113 25.190327 30.34 25.35zM28.06 25.4C 28.01 25.4 28.06 25.4 28.06 25.4C 28.06 25.4 28.09 25.21 28.09 25.32zM25.06 25.449999C 25.06 25.449999 24.97 25.449999 24.97 25.449999C 24.97 25.449999 25.1 25.41 25.11 25.37zM29.75 25.589998C 29.795359 25.592075 29.836424 25.56333 29.85 25.519999C 29.85 25.519999 29.79 25.44 29.8 25.51zM29.13 25.729998L29.269999 25.729998C 29.33 25.51 29.15 25.51 29.18 25.65zM28.9 25.729998C 28.954882 25.743532 29.01109 25.713266 29.029999 25.659998C 29 25.61 29 25.62 29 25.68zM35.51 21.849998C 35.399998 21.8 35.28 21.96 35.28 21.849998C 35.28 21.739998 35.58 21.67 35.56 21.8zM35.039997 22.059998L35 22.059998C 34.994446 22.013496 34.994446 21.9665 35 21.919998C 35.09 21.89 35.11 21.93 35.09 22zM35.039997 22.059998C 35.28 22.059998 35.039997 22.269997 35.039997 22.059998zM6.829998 22.119997L7 22.119997L7 22.179996L6.88 22.179996zM34.829998 22.119997C 34.82279 22.149565 34.82279 22.18043 34.829998 22.209997L34.829998 22.209997L34.64 22.209997C 34.70242 22.143179 34.78197 22.094757 34.87 22.07zM35.989998 22.119997C 36.07 22.119997 36.129997 22.119997 36.129997 22.209997C 36.129997 22.299997 36 22.19 36 22.11zM3 22.13C 3.07 22.13 3.06 22.23 3.17 22.199999C 3.2800002 22.169998 3.0900002 22.31 2.97 22.3C 2.9944587 22.246857 3.0047917 22.188303 3 22.13zM35.12 22.179998C 35.239998 22.119999 35.12 22.289999 35.21 22.269999C 35.1 22.38 35.09 22.399998 34.879997 22.369999C 34.86 22.24 35.05 22.3 35.07 22.18zM35.45 22.3C 35.45 22.3 35.45 22.3 35.45 22.3C 35.45 22.3 35.41 22.3 35.4 22.3zM6.8100014 22.73C 6.8800015 22.73 6.9200015 22.73 6.9000015 22.82L6.9000015 22.82L6.76 22.82zM27.11 23.289999C 27.11 23.289999 27.16 23.289999 27.2 23.289999C 27.240002 23.289999 27.1 23.29 27.06 23.29zM26.75 23.359999C 26.75 23.359999 26.75 23.359999 26.75 23.359999zM25.92 23.72C 26.01 23.599998 25.92 23.83 25.92 23.72zM25.38 24.49C 25.58 24.34 25.98 24.38 26.21 24.26C 26.21 24.17 26.06 24.26 26.119999 24.16C 26.269999 24.22 26.31 24.05 26.38 24.16C 26.449999 24.27 26.25 24.289999 26.24 24.4C 25.89 24.37 25.65 24.48 25.33 24.49zM25.449999 24.16C 25.449999 24.16 25.339998 24.28 25.449999 24.26C 25.38 24.42 25.07 24.26 24.89 24.39C 25.034657 24.26637 25.21158 24.18658 25.4 24.16zM25.38 24.49C 25.38 24.49 25.38 24.49 25.38 24.49zM25.92 24.49C 25.92 24.619999 25.83 24.59 25.73 24.59C 25.63 24.59 25.79 24.5 25.87 24.49zM25.19 24.68C 25.19 24.68 25.19 24.68 25.26 24.68C 25.33 24.68 25.17 24.67 25.14 24.68zM26.19 24.68C 26.19 24.75 26.07 24.68 26.03 24.68C 25.990002 24.68 26.09 24.67 26.16 24.68zM24.650002 24.75C 24.650002 24.67 24.770002 24.67 24.810001 24.75C 25.09 24.7 24.66 24.84 24.62 24.75zM25.900002 24.68C 25.843386 24.747725 25.758146 24.784786 25.670002 24.78C 25.64 24.68 25.76 24.7 25.87 24.68zM25.340002 24.880001C 25.490002 24.77 25.460003 24.970001 25.340002 24.880001zM23.950003 25.11C 23.950003 25.210001 23.860003 25.210001 23.780003 25.210001C 23.700003 25.210001 23.85 25.13 23.92 25.11zM24.180002 25.37C 23.807407 25.44512 23.42966 25.49192 23.050003 25.51C 23.396145 25.360588 23.777468 25.312056 24.15 25.37zM24.870003 25.480001C 24.870003 25.580002 24.730003 25.480001 24.870003 25.480001zM22.930002 25.54C 22.930002 25.54 22.930002 25.54 22.930002 25.54zM24.110003 25.54C 24.000002 25.54 23.700003 25.68 23.640003 25.54C 23.78785 25.522284 23.93777 25.535912 24.08 25.58zM23.260002 25.54C 23.260002 25.740002 23.010002 25.62 22.830002 25.630001C 22.958176 25.582706 23.097746 25.57573 23.23 25.61zM26.430002 25.54L26.590002 25.54C 26.590002 25.54 26.590002 25.630001 26.590002 25.630001C 26.590002 25.630001 26.510002 25.7 26.420002 25.7C 26.330002 25.7 26.44 25.72 26.4 25.61zM32.750004 25.61C 32.750004 25.61 32.750004 25.61 32.750004 25.61zM25.900003 25.61C 25.900003 25.61 26.210003 25.53 26.160004 25.61C 26.110004 25.69 26 25.69 25.87 25.7zM32.750004 25.61C 32.750004 25.61 32.750004 25.61 32.750004 25.61zM32.610004 25.61C 32.602913 25.644966 32.581757 25.675482 32.551502 25.694391C 32.521244 25.713303 32.484547 25.718946 32.450005 25.710001C 32.491585 25.694738 32.536575 25.691277 32.58 25.7z" stroke="none" fill="#FFFFFF" fill-rule="nonzero" />
</g>
</svg>