<svg xmlns="http://www.w3.org/2000/svg" width="66" height="26" viewBox="0 0 66 26"><path d="M12.67,12.18h-.1s.1,0,.1,0c1.57-.16,3.43-.31,5.15-.42H18c.11,0-.06,0-.1,0s-.36,0-.33.2A8.09,8.09,0,0,1,19,11.91c-.08.33-.36.16-.52.16-.57,0-1.19.2-1.85.27-1.13.13-2.47.12-3.44.33s-1.78.08-2.46.3-.81.89-1.51.8c-.31,1.49-1.2,2.4-1.8,3.61a.28.28,0,0,0-.13,0,8.45,8.45,0,0,0-.4,2.84s-.06-.09-.07-.07c-.18.25,0,.88,0,1.29a7.42,7.42,0,0,1,0,.76c0,.08-.07.07-.09.14s0,.23-.07.3.19.19.23.36a1.42,1.42,0,0,1-.23-.14c0,.11-.14.28,0,.33s0-.09,0-.19a.3.3,0,0,1,.2.23c-.17,0-.09.1-.07.17-.4.18-.61.56-1,.76-.29-.15-.25-.83-.2-1.23-.11-.19-.47-.12-.56-.33a1.15,1.15,0,0,1-.57.14,2.32,2.32,0,0,0,.24-.47c-.17-.32-.25.12-.36.23s-.15-.19-.3-.23c-.33.11-.42-.15-.69-.07-.21-.08-.28-.32-.6-.3,0-.13.07-.13,0-.26a5.87,5.87,0,0,1-1.09-1.33c0-.14.09,0,.1-.09s-.08,0-.17,0c-.27-.58-.12-1.6-.56-2-.33,0-.36-.3-.66-.33,0-.09.14,0,.19,0s0-.08,0-.16c.39.37.83-.15.73-.53,0-.09-.11-.23-.23-.09-.09-.22.22-.21.13-.4.47,0,.43-.64.5-.93.1,0,.1.1.1.2.38-.25.47-.8.69-1.23,0-.1.16-.15.19-.26.27-.75.11-1.63.52-2.22-.12.41-.15.94-.23,1.39a3.88,3.88,0,0,0,.3-1.46c.08,0,.07-.1.14-.14a6.57,6.57,0,0,1,.33-1.25,8.24,8.24,0,0,0,.5-2.25c0-.08-.07,0-.1-.09s.08-.09.07-.14-.14,0,0-.17c-.1,0-.13-.09-.17-.23a2.32,2.32,0,0,0,.33-.47,1.36,1.36,0,0,0-.09-.36c.09,0,.22,0,.23-.16s-.27,0-.47-.07,0,.2-.07.33-.09,0-.19,0a.77.77,0,0,1,0-.43c-.13,0-.06.12-.19.1s0-.32-.16-.36,0,.3-.14.3-.08-.19-.14-.3-.3-.22-.23-.4c-.14,0-.25-.12-.24-.36a1.66,1.66,0,0,1,.59.14c0,.11-.09.14-.13.23.18.26.59.29.8.53.15,0,.22-.14.35-.17a.91.91,0,0,0,.24.33,4.25,4.25,0,0,0,.23-1,.2.2,0,0,0,.14,0,.39.39,0,0,1-.1-.43c0-.08-.2,0-.23-.07.1-.31.21-.63.52-.73,0-.07-.08-.12,0-.13s.07,0,.1.06c.29-.08.4-.35.59-.59A20.42,20.42,0,0,1,8.84,1.32c.31-.24.65-.44,1-.66s.5-.55.86-.66a.7.7,0,0,1,0,.63c.05.1.4-.05.26.14.23-.16.38,0,.49-.3.1.08-.11.14-.06.26a.89.89,0,0,0,.46.1c.79,0,1.75.05,2.75,0,1.46,0,3.29-.33,4.13.5a9.13,9.13,0,0,1,3.08,0c.7.25,1.59.32,1.84.86a15.71,15.71,0,0,1-.76,1.72c0,.11.09.11.07.23a5.32,5.32,0,0,1-1.58.27.41.41,0,0,0-.1.33A10.58,10.58,0,0,0,19.85,5c-.32.14-.4.61-.69.83s-.5.22-.76.43a1,1,0,0,0,0,.26c-.15,0-.16-.13-.3-.14-.34.07-.59-.11-.92-.17L15.8,5.91A5,5,0,0,0,14,5.68a6.26,6.26,0,0,0,2.41,2.24.72.72,0,0,1,.09.2,3.83,3.83,0,0,0,1.85.16c.4,0,.88.18,1.13.2a4.6,4.6,0,0,1,.5,0c.22,0,.36.19.56.23,0,0,.13,0,.17,0s.29.27.49.3c-.05.16-.08.36-.33.33-.07-.07,0-.08,0-.14a.31.31,0,0,0-.33-.07c0,.13.18,0,.14.17s-.21,0-.24.09c.17.07,0,.22,0,.34h-.26s0,.16,0,.16.28.08.24.3c-.16,0-.35,0-.36.1a1.18,1.18,0,0,0,.36.1,2.82,2.82,0,0,1,.26.49,2.78,2.78,0,0,1-1,.2c.1.16.29,0,.43.13-.08.1-.37,0-.47.07s.18,0,.19.1a10.9,10.9,0,0,0-1.22,0c-.15.12-.18.37-.47.35,0-.13.26-.08.26-.26-2.6.33-5.76.49-8.43.69-.16,0-.42-.07-.5.1a29.35,29.35,0,0,0,3.17-.17s0,0,0,0S12.67,12.14,12.67,12.18Zm7.94-8.24c-.07.08,0,.13,0,.24.34-.13.68.06.92-.07A1.42,1.42,0,0,0,20.61,3.94Zm-.13,0s-.07,0-.07,0S20.48,4,20.48,4Zm1.33.26s0,0,0,0Zm-3.59.2c.22,0,.76,0,.9-.14A1.9,1.9,0,0,0,18.22,4.44Zm1.89,0s-.07,0-.07,0S20.11,4.44,20.11,4.41ZM6.26,5.24c.12-.11.25-.53.14-.66C6.4,4.78,6.19,4.88,6.26,5.24Zm11.84-.6c.33,0-.1-.08-.24,0C18,4.69,18,4.64,18.1,4.64Zm-.5,0s-.09,0-.09,0S17.59,4.71,17.6,4.67ZM20,4.74c-.36,0-.18.17,0,0Zm-1,.13c.09,0,.33.06.33-.07C19.19,4.85,18.87,4.81,18.93,4.87Zm-1,.06s-.07,0-.07,0S18,5,18,4.93Zm.24,0c-.21,0-.07.11,0,0Zm-12.44.5s-.16.12-.06.17.06-.09.06-.17c.18.11.27-.28.2-.4s-.15.11-.26.14S5.79,5.29,5.76,5.43Zm11.61.1c.07,0,.14,0,.14-.1h-.14Zm-5.1,1.88c-.19.42-.54.68-.69,1.14a1.57,1.57,0,0,0,.92-.17c0,.07,0,.11.07.1.66,0,1,0,1.59,0,.22.27.81.15,1.09.07.44-.13,1,.15,1-.33A11.38,11.38,0,0,1,14.52,6.7c-.1-.07-.24-.08-.34-.17-.3-.25-.44-.69-.75-.92a6.28,6.28,0,0,0-1.3,0c.07.15,0,.22.1.36s-.17,0-.17.16.14.2.17.33-.08,0-.24.07a1,1,0,0,0,0,.26c0,.11-.11.09-.14.17-.16.66-.42,1.08-.49,1.59C11.73,8.2,11.94,7.73,12.27,7.41ZM12,5.76h.07s0,0,0-.1H12S12,5.71,12,5.76ZM11.65,6c0,.11.08-.13,0,0ZM5.82,8.34c.5-.22.56-1.21.47-1.82C6.15,7.15,6,7.73,5.82,8.34Zm-.1-1.52s0,0,0,0h0s-.06.1,0,.1,0-.06,0-.1,0,0,0,0,.13-.16.17-.26S5.76,6.73,5.72,6.82Zm6.22,0Zm-6.51.34c0,.11.09-.14,0,0ZM11,8c0,.12.14,0,0,0a.12.12,0,0,1,0-.1c0-.12.11-.16.23-.16s.09-.24.1-.43c-.26.12-.21.54-.52.59.05.21-.17.17-.07.33-.17,0-.21.2-.26.34C10.75,8.72,10.84,8.1,11,8Zm.26.26c-.07.11-.28.19-.17.31a2,2,0,0,0,.5-1C11.44,7.77,11.37,8.05,11.25,8.24ZM5,8.15c.1,0,.11-.11.17-.17C5,8,5,8.05,5,8.15Zm-.3.13c.08,0,.19-.11.1-.16S4.63,8.16,4.66,8.28Zm1.46.13c0-.06.13-.18,0-.24S6,8.35,6.12,8.41ZM5.89,9c.14,0,.19-.29.14-.4C6,8.83,5.87,8.83,5.89,9ZM5.06,8.9c0,.14,0-.12,0,0Zm-.85.5c0,.19,0-.12,0,0ZM15,9.73c.51,0,.84,0,1.39,0A3.43,3.43,0,0,0,15,9.73Zm1.61-.1s-.07,0-.07,0S16.64,9.66,16.64,9.63Zm-12.43.2c0-.09,0-.17-.07-.17S4.1,9.87,4.21,9.83Zm7.07.07a10.06,10.06,0,0,0,2.08-.17A10.43,10.43,0,0,0,11.28,9.9Zm7.48.49V10.3h-.1A.07.07,0,0,0,18.76,10.39ZM19,10.3s-.06,0-.06,0S19,10.32,19,10.3Zm-5.56.19c.05.12.47.08.52,0A1.29,1.29,0,0,0,13.43,10.49Zm1.29,0s-.07,0-.07,0S14.72,10.49,14.72,10.46Zm-.63,0s-.07,0-.07,0S14.09,10.53,14.09,10.49Zm3.31.56c.23,0,.55.15.75,0-.08,0-.23,0-.26,0s.22,0,.24-.17A1.91,1.91,0,0,0,17.4,11.05Zm1.79-.12h.09c0-.06,0-.08-.09-.07Zm-9.59.16A3.83,3.83,0,0,0,10.89,11C10.59,11,9.87,10.9,9.6,11.09Zm4.79,0a12.64,12.64,0,0,0-1.79.17c1.09,0,2.22-.14,3.31-.1A4.73,4.73,0,0,0,14.39,11.05Zm1.59.07a.09.09,0,0,0,.09-.07S16,11.05,16,11.12Zm.16,0a1.15,1.15,0,0,0,.8,0A2.17,2.17,0,0,0,16.14,11.12Zm1.2.14c.28,0,.84.06,1-.19C18.1,11.25,17.58,11.11,17.34,11.26ZM17,11.12s0,0,0,0Zm-4.86,0c-.05,0-.1,0-.1,0S12.13,11.16,12.15,11.12Zm6.38,0s0,0,0,0Zm-6,.33c.06,0,.17,0,.14.07-.37-.07-.88-.11-1.06.16a4.23,4.23,0,0,0,2.12,0,4.09,4.09,0,0,0,.47,0c.3,0,.51-.31.8-.19,0,.07-.18,0-.17.1.67-.13,1.63-.21,2.32-.4A38.53,38.53,0,0,0,12.57,11.48Zm-8.4,0c.17-.13-.12-.15,0,0Zm5.66,0a5,5,0,0,0,1.06-.1C10.64,11.4,10,11.32,9.83,11.48ZM4,13.37c.21,0,0,.22.07.33a1.56,1.56,0,0,0,.3-.85s-.09,0-.09,0a7.75,7.75,0,0,0,.3-1.36A15.82,15.82,0,0,0,4,13.37Zm7.75-1.85c-.14,0,0,.1,0,0S11.75,11.48,11.75,11.52Zm-2.89.17c.17,0,.49,0,.57-.17a1.52,1.52,0,0,1-.5,0C9,11.58,8.86,11.63,8.86,11.69Zm2.72-.17s-.07,0-.07,0S11.58,11.55,11.58,11.52Zm-6.85.29c0-.05.1-.16,0-.19S4.66,11.8,4.73,11.81Zm4.89-.16s0,0,0,0Zm.83,0s0,0,0,0Zm-1.52.2h.14v-.09C9,11.74,9,11.8,8.93,11.85ZM4.3,14.79c.2-.29.18-.79.33-1.13.07,0,0,.12.14.09,0-.57.59-1.26.19-1.75A17.8,17.8,0,0,0,4.3,14.79Zm3.24-2.61s0,0,0,0S7.54,12.14,7.54,12.18Zm3.54.17a4.71,4.71,0,0,0,1.3-.17A5.06,5.06,0,0,0,11.08,12.35Zm-.33,0c.07,0,.22,0,.24,0S10.68,12.35,10.75,12.38Zm-3.33,0h0s0,.09,0,.09,0,0,0-.09S7.4,12.38,7.42,12.42Zm3.17,0c-.06,0-.2,0-.2,0S10.59,12.46,10.59,12.38Zm-3.14.2ZM5.53,13.84ZM3.83,14v.07c.09.06.1-.11,0-.09S3.86,14,3.83,14Zm-.05.62c.18,0,.22-.4.07-.49A.84.84,0,0,0,3.78,14.62Zm.36-.33c0,.21,0-.12,0,0Zm-.64,2c.09.12.1-.15.17,0,0,.59-.37,1.1-.24,1.58.36-.08.29-.68.34-1.15.06-.71.19-1.52.23-2A3.51,3.51,0,0,0,3.5,16.28Zm-1.11.13a7.15,7.15,0,0,1,.3-1.62s0,0-.07,0C2.44,15.23,2,15.93,2.39,16.41Zm5,.07c.11-.51.38-1,.43-1.48A5.68,5.68,0,0,0,7.42,16.48Zm-5.79.83c.52,0,.23-1,.33-1.32C1.74,16.39,1.81,16.87,1.63,17.31Zm-.14-.37c0,.14,0-.13,0,0Zm1,1.27A3.15,3.15,0,0,0,2.91,17C2.75,17.3,2.4,17.81,2.48,18.21Zm-.92-1.13Zm.19,1.15c.06.11.09-.12,0,0ZM2.81,19c.06.09.23.18.31.14a.85.85,0,0,0-.26-.56A2,2,0,0,1,2.81,19Zm-.63.13C2,19,1.67,19,1.45,18.92,1.57,19.09,2,19.13,2.18,19.09Zm.94.11s-.06,0-.07,0S3.1,19.24,3.12,19.2Zm3.33,4V23H6.36C6.37,23.11,6.36,23.22,6.45,23.22Zm.07.11c0,.13,0-.13,0,0Zm.13.06c-.07.11.11-.07,0,0Zm-.2.11c0,.12,0-.14,0,0Zm47.63-6.82c-.12-.18-.3.08-.4-.1-.09,0,0,.11,0,.17l-1.84,0c-.36,0-1-.14-1.09,0-.41.41-.69,1-1.09,1.42a17.48,17.48,0,0,1-2.38,2.34c.18.06.4-.13.49-.26-.3.54-1.11.84-1.72,1.19a3.15,3.15,0,0,1-1.35-.2c-.4-.13-.77-.48-1.23-.63-.14,0-.29,0-.42-.07s-.28-.18-.43-.23a5.65,5.65,0,0,0-2.41-.17c-.46,0-.82.22-1.16.26C38,20.47,37.52,19,37.39,18a1.56,1.56,0,0,1-.52-1.46c-.07-.06-.36,0-.5-.07,0,.14.18.15.31.19a3,3,0,0,1-1,.07,3.78,3.78,0,0,1,.56.4c0,.11-.07.11-.17.1s.06.11.1.13a2.42,2.42,0,0,1-1,.07c.16.07.44.15.36.36-.14,0-.17-.05-.31,0s.24.22.4.26c0,.06-.12.06-.13.14s.29-.18.33-.33c0,0,.08,0,.07.1a.1.1,0,0,0-.07.07s.09,0,.09,0H36c0,.07-.1,0-.07.14s.15.05.14,0c0,.2.07.58-.07.76.14.38.28,1-.33.89,0,0,.07,0,.1.07-1.52.51-3.6.29-5.39.4-.07,0-.07.08-.14.1s.07.09,0,.16a4.29,4.29,0,0,0-1.19.1,9.22,9.22,0,0,0-1.68.89,2.84,2.84,0,0,1-.49.1c-.79.23-1.63.92-2.32.3-.19.1-.33-.05-.47-.13,0-.07.14-.16,0-.2s0,.14-.09.14c-.25,0-.27-.5-.64-.33a8.27,8.27,0,0,0-1.29-.52,3.85,3.85,0,0,0-.5-.8c-.1.22.28.44.26.56s-.19-.2-.3-.3,0,.11,0,.16a1.09,1.09,0,0,1-.4-.75c-.21,0,0,.2-.14.19,0-.24-.16-.36,0-.47-.07-.14-.14-.07-.3-.1,0-.08.15-.09.26-.09,0-.17-.29,0-.5-.07.09-.14.39,0,.47-.17-.18-.07-.56.14-.69-.09a4.23,4.23,0,0,0,.47,0c0-.39-.33-.57-.26-.9.1,0,.15.09.23,0a2.46,2.46,0,0,1-.26-1.15c.13-.07.15.06.31.06s.06-.15.06-.33c.1,0,.09,0,.17,0-.08-.1.07-.27,0-.33s.1,0,.19,0a1.51,1.51,0,0,0,.07-.4c-.1-.17-.33-.18-.43-.33s.06-.14,0-.27a1.18,1.18,0,0,1,.5.17c.29-.26-.07-.62-.24-.76.16,0,.1-.15.17-.19a1.1,1.1,0,0,1-.24-.9c.1,0,0,.24.14.26s0-.18,0-.23.13.14.14.26c.22,0,.22-.33.47-.23a1.66,1.66,0,0,0,.07-.47A2.52,2.52,0,0,0,22.34,12a22.54,22.54,0,0,0,1.42-5c.13-.69.5-1.57-.09-2.08.08-.22-.06-.41,0-.59s.18-.28.26-.43.07-.34.17-.47.38-.25.26-.52c.07-.08.12,0,.19,0a7.68,7.68,0,0,1,1.32-1.16c.1,0,.1.07.2.07,3.76-.77,7.77.37,11.24.83,0,0-.05,0-.06.1s.42,0,.63.09a1,1,0,0,1-.69.07.84.84,0,0,1-.66.23c0,.06-.07.14,0,.2-.23.19-.73.12-.92.36,0,.09.08,0,.16,0-.11.18.07.22.2.26,0,.07-.1.09-.2.09s.06.07,0,.17-.29.1-.33.26a1.47,1.47,0,0,0-.4.1c.15.2-.3.23-.43.36.13.13.26,0,.5,0a5.08,5.08,0,0,1-2.12.6c0,.13.08.16.19.16-1.16.48-3.35-.26-4.3.43a6.6,6.6,0,0,1-.19,1.79c.07.07.29,0,.35.07s.11-.14.14-.23c.29,0,.4-.22.66-.1.13-.07.06-.22.31-.24s0,0,0,.1a5.5,5.5,0,0,1,1.4-.14,8.68,8.68,0,0,1,2.55,0c.08,0,.2,0,.26-.07.07.31.55.35,1,.4.11-.16-.23-.11-.33-.16s.24,0,.26-.07-.12-.06-.16-.1.14,0,.19,0c0,.34.51.18.53.49-.14-.07-.17-.25-.43-.19.09.22-.06.36.19.47.08,0,0-.11,0-.14s.07,0,.07,0,.18.32,0,.36c0,.18.14.26.19.4,0,.3-.19.44-.23.73-.1,0-.14-.08-.24-.1a1.23,1.23,0,0,1-.19.31c.21.38.77.66.53,1.29-.1.11-.5-.15-.47.14a1.83,1.83,0,0,0-.76.14,7.68,7.68,0,0,0-2.68.16c0,.1.28-.05.24.1a.8.8,0,0,0-.4.07c0,.12.1.1.19.1,0,.23-.23,0-.4,0-.47,0-1,.24-1.49.27a.08.08,0,0,0-.06.09c-.1-.08-.25,0-.34,0s0,.09,0,.14-.1,0-.26,0-.07.24-.14.33,0-.08,0-.16c-.19.15-.15.33-.23.56.19,0,.12-.19.33-.14,0,.14-.25.14-.14.34-.06.06-.24-.16-.19.09-.11,0-.05-.14-.17-.09s.17.08.17.19,0-.06-.1,0,0,.19-.1.33c.1.15.17-.05.36,0-.1.18-.18.17-.16.43a1,1,0,0,0-.67.52c-.09-.07,0-.2,0-.3-.2-.12-.27.25-.42.16s0,.13,0,.17-.08,0-.14-.07,0,.25-.19.3,0-.06,0-.16c-.17-.06-.06.16-.2.14-.13.52-.34,1-.47,1.51.17.06.29-.18.53-.16,0,.16-.35.07-.36.26.34.16.65-.33.85-.19.05,0,.05-.11.1-.14.51-.06.74-.39,1.35-.33a.28.28,0,0,1-.14.09c.42.29,1.35-.09,1.75.24.07-.06.24-.14.33-.07S31,16,30.9,16a.26.26,0,0,0,.4-.1c.11.07.2.14.36.07-.07.08,0,0,0,.1.48,0,.52-.15,1-.1,0,.06,0,.08-.1.07s.34.11.31,0c.33,0,.67.14,1.09.14.08.06-.22,0-.27.07.39.12,1.24.3,1.56,0,0-.11-.23-.06-.23-.19.34,0,.66.15,1.09.13.08.06-.22,0-.27.07a2.64,2.64,0,0,0,1.07.17c.13-.15.19-.4.33-.57a17.72,17.72,0,0,1,.47-4.6c.23-2,1.19-3.28,1.46-5.15.13-.14.12-.43.33-.5a.62.62,0,0,1,.09-.36c-.18-.34,0-.81-.07-1,.05-.11.21-.08.27-.17s-.16-.26,0-.26a.79.79,0,0,1-.13-.4c.08,0,.16,0,.19,0a1,1,0,0,1,0-.26c.11,0,.11,0,.1-.14s.14.07.19,0,0-.3-.14-.4a.82.82,0,0,0,.1-.66,1.77,1.77,0,0,0,.56-.49c.36.13.53.48.83.69a1.45,1.45,0,0,1,1,.33c.12-.1.22-.25.33-.36.67-.17.63.47.56.92-.12,0-.25.06-.3.17a.29.29,0,0,0,.26.14c.11,0,0-.09,0-.17s.07,0,.14,0c0-.56.74-.19.73.17,0,.11-.11,0-.07.14s.08.13.14.19a4.39,4.39,0,0,1-.27.47c.58.42-.12.92-.47,1.39a.88.88,0,0,0,0,.16c-.11.17-.28.27-.33.4-.09.47-.15.75-.24,1.16a45.63,45.63,0,0,0-.69,4.54,1.25,1.25,0,0,1-.09.66c0,.11.11.08.09.19a.28.28,0,0,0-.13,0c0,.08,0,.09,0,.19-.36.5-.18,1.32-.36,2,1.59.33,3.6.55,4.87,1.55a1.08,1.08,0,0,0,.4-.33c-.12-.25-.14-.49-.43-.63A7.2,7.2,0,0,0,46,14.09a.41.41,0,0,0-.14-.43c0-.15.12-.14.1-.3a.3.3,0,0,0-.43,0c0-.16.21-.18.3-.26a1.09,1.09,0,0,1,0-.33c0-.07-.12-.07-.16-.14.13-.27.17-.67-.07-.8.09-.12.37-.07.46-.19.23.15.57.81.86.36a1.26,1.26,0,0,0,.73.3c.1,0,0-.08,0-.16.4,0,.81-.06.85-.43.22.1.46-.11.69,0,0-.14-.22-.07-.19-.24.23-.05-.14-.12-.3,0,0-.08-.09-.12,0-.23.36,0,.58.33.9.26-.1-.2-.42-.2-.6-.33.37-.18.76.17,1.16.17a27.14,27.14,0,0,0,1.3-3c0-.62.63-1,.46-1.56,0-.08.11-.11.1-.23s-.18,0-.3,0c.26-.12.63-.54.43-.83.11,0,.13,0,.19-.06-.26-.28-.62-.2-1-.17,0,.07.08.07.16.07A.75.75,0,0,0,51,6c-.16-.14.09-.36-.14-.47.19-.08.23-.3.3-.5.25,0,.36-.23.57-.33-.22-.29-.71-.07-.93.17a1.28,1.28,0,0,1,.69-.9c0,.1-.14.06-.14.17s.24,0,.27-.1-.06-.07-.14-.07c.18-.32.7-.09.8-.49-.14-.07-.66-.05-.8.16,0-.21.37-.26.52-.4s0-.07,0-.14a.31.31,0,0,0,.31-.3.62.62,0,0,0,.33-.17c0-.11-.17-.05-.24,0,0-.14.2-.06.2-.17s-.31-.2-.4-.07c.31-.58,1.67-.4,1.89-1.18a1.29,1.29,0,0,1,1,0c.44-.2,1.3-.48,1.65,0,0,.7.73.45.9,1a1.31,1.31,0,0,1,.52,0c.15.23,0,.52-.07.73.43.12.28.46.33.8s.39.62.59.92a19.1,19.1,0,0,1,1,1.85c1.15,2.23,2.14,4.6,3.31,6.81.22.23.28.62.57.8a2.73,2.73,0,0,1,1.29.49c.08.24-.12.58.1.69,0,.09-.07.07-.1.1s.28.14.26,0c.1.14.14.33.33.36,0,.08,0,.19,0,.23s-.19.23-.09.4c-.06.1-.22.09-.31.17s.17,0,.24,0c-.1.25-.1.51-.17.73a.68.68,0,0,0,.14.23,6.35,6.35,0,0,1-.19,1.75,5.33,5.33,0,0,1,.33,2.72s-.07,0-.07,0c-.21,0-.28-.09-.4-.14s-.14.08-.24.09-.13-.12-.26-.13.35.42.07.59c-.22,0-.25-.25-.4-.36a1.18,1.18,0,0,0-.14.9.26.26,0,0,1-.33,0c-.11,0-.08.13-.16.16-.58,0-.61-.55-1-.69a1.44,1.44,0,0,0,.42.57c-.09.27.27.52.24.73-.1.54-.79,0-.92-.07-.36-.06-.47.21-.73,0a5.91,5.91,0,0,1-1-1.52c-.23-.4-.59-.67-.66-1-.39-.37-.5-1-1-1.32,0-.29-.3-.32-.49-.43a.48.48,0,0,0-.66-.43c0-.07.09,0,.07-.13.11.09.2,0,.33,0,.33.09.45.42.69.6.09,0,.08-.14.19-.14a1.86,1.86,0,0,0-1-.9c.08-.19.3.11.4-.07a1,1,0,0,0-.34-.26c0-.15.1-.14.2-.16,0-.18-.28-.06-.36-.14s.21,0,.19-.14a.37.37,0,0,0-.3-.26c0-.13.15-.08.1-.26s-.13-.11-.27-.07c.18-.09.06-.18,0-.26.09,0,.18,0,.16-.1a2.79,2.79,0,0,0-1-.14c.08-.08.29,0,.36-.14s0-.11-.1-.09c.17-.11.41-.14.57-.26-.29-.21-.53.08-.76.16-.06,0-.14,0-.19,0-.31.07-.5.32-.76.43a2.87,2.87,0,0,1-1.23.07c-.34,0-.59.08-.73-.1-.1,0-.21,0-.23.1ZM53.29,1.93c.06,0,.12,0,.13-.07s-.07,0-.13,0Zm.56.12V2C53.8,1.89,53.68,2.09,53.85,2.05ZM53,2.26h.1c0-.08,0-.14-.1-.14Zm-.35.1s.12,0,.13,0S52.67,2.27,52.67,2.36Zm-9.9.26c.14,0,.22.18.4.19C43.47,2.52,42.81,2.22,42.77,2.62ZM58,2.88c0-.08,0-.19-.07-.19S57.86,2.91,58,2.88ZM42.74,3c.11,0,.18-.08.07-.1S42.76,2.94,42.74,3Zm.73.55c.21,0,.2-.18.26-.3C43.55,3.14,43.42,3.32,43.47,3.54Zm9.69,0c0,.08,0,.11.14.1s0-.14-.1-.14S53.19,3.56,53.16,3.54Zm-12.71.07Zm3.15.63c.09-.16,0-.34.09-.56C43.39,3.68,43.31,4.18,43.6,4.24Zm8.24-.46c0,.13-.07.12-.07.23.18,0,.27-.29.5-.16-.07,0-.14,0-.14.09a2.58,2.58,0,0,1,.42.1c0-.06.1-.08.07-.19a.68.68,0,0,0-.33,0s0,0,0-.1C52.1,3.68,52,3.78,51.84,3.78Zm.85,0c0,.09.11.07.17.09S52.76,3.72,52.69,3.78Zm-17.13.33c0,.11.08-.13,0,0Zm16.37.3a2.39,2.39,0,0,0,.57.19,1.18,1.18,0,0,0-.1-.36C52.16,4.24,52,4.15,51.93,4.41Zm-.26,0c.1,0,.07,0,.17,0s0-.11-.14-.1A.13.13,0,0,1,51.67,4.37Zm-.23,0a.17.17,0,0,0,0,.1c.06,0,.06,0,.13,0S51.49,4.29,51.44,4.34Zm.85.3a.81.81,0,0,0-.47-.09C51.82,4.77,52.22,4.71,52.29,4.64Zm-.55.2c0,.08,0,.16-.07.16s-.23,0-.33,0c.26.25.77,0,1.09.2,0-.2-.22-.24-.26-.43C52,4.73,51.91,4.85,51.74,4.84Zm-9.09.23h.06s0,0,0-.09h-.07S42.63,5,42.65,5.07ZM52,5.26a.64.64,0,0,0,.33.1C52.35,5.24,52,5.13,52,5.26Zm-10.32.1c0,.25,0-.11,0,0Zm9.52,0Zm-8.66.37c0,.24-.34.33-.34.73.2,0,.17-.27.34-.33C42,7,42.07,8.39,41.9,9.7c0,.43-.18.91-.19,1.23-.08,1.06-.29,2.18-.26,3.07-.13.14-.1.43-.1.69.19,0,.19.21.36.1.2-1,.26-2,.4-3s.19-2.19.4-3.21a28.16,28.16,0,0,0,.56-3.07C42.92,5.4,42.67,5.58,42.54,5.73Zm8.57-.2s0-.07,0-.1S51.05,5.51,51.11,5.53ZM41.82,7.41s-.07,0-.07,0S41.82,7.46,41.82,7.41Zm-6.49.5c0-.23-.28-.19-.47-.23C34.89,7.9,35.19,7.83,35.33,7.91Zm18.33.24v.06c.05.1.11-.05.14-.09S53.71,8.15,53.66,8.15ZM52.4,10.86c-.12,0-.08.14-.16.17v-.14c-.17,0-.15.22-.26.3.09,0,.13,0,.3,0s.11-.18.12-.33.17-.16.2-.1-.07.17,0,.24.27-.21.4-.24a2.39,2.39,0,0,0-.2.43c.14,0,.21-.08.26,0s-.19,0-.19.16.31,0,.4-.06c.08.11.36,0,.5.09.18-.33.48-.59.4-1.09a1.73,1.73,0,0,0,.4-.76c-.33.14-.38.58-.66.76-.23-.4.55-.48.4-.92.16,0,.16-.25.23-.4a.47.47,0,0,0-.33.07c0-.1,0-.18-.1-.17a3.2,3.2,0,0,1-.66,1.19c0-.35.32-.61.43-.92V8.83c0-.19.3-.59.09-.68-.16.16-.15.53-.42.59,0,.18,0,.37-.17.43,0-.09,0-.17-.14-.17A6.57,6.57,0,0,0,52.4,10.86ZM39.06,8.38c-.07.11.11-.08,0,0Zm14.39.26s0,0,0,0a.34.34,0,0,0,.19-.3C53.53,8.38,53.48,8.49,53.45,8.64ZM33.08,8.45s0,0,0,0Zm21.07.12Zm0,.21a.29.29,0,0,0,0,.1c.07,0,.07-.05.14,0A.09.09,0,0,0,54.15,8.78Zm-23.36.39c.21.06.32,0,.6,0C31.32,9,30.9,9.11,30.79,9.17Zm21.71,0c-.07.07-.22.23-.17.33.06-.1.17-.17.17-.33S52.5,9.1,52.5,9.14Zm-19.68.23c-.06,0-.19,0-.19,0S32.82,9.45,32.82,9.37Zm21.26,1.75c.16,0,.31-.09.4,0-.08.15-.45,0-.49.2.51-.1,1.56,0,1.75-.47-.36-.39-.51-1-.92-1.3C54.62,10.14,54.25,10.53,54.08,11.12ZM32,9.8c.08.14.51.08.57,0C32.36,9.79,32.12,9.73,32,9.8Zm3.05.59c0-.18-.25-.54-.4-.56A2.28,2.28,0,0,0,35,10.39Zm-1.13-.23H34c0-.07,0-.11-.09-.1Zm17.76.14c.13,0,.17-.13.07-.14A.61.61,0,0,0,51.67,10.3Zm-.14.35c0-.09.21-.2.07-.26C51.6,10.49,51.45,10.58,51.53,10.65Zm-23.22,0s0,0,0,0Zm23.93.12c.11,0,.08-.12.14-.17C52.27,10.67,52.22,10.72,52.24,10.82Zm-.83,0s0,0,0,0S51.37,10.72,51.41,10.86Zm-24.78.36c0-.11.12-.36,0-.4A.46.46,0,0,0,26.63,11.22ZM51.34,11s0,0,0,0Zm1.23.23h.07s0,0,0-.1h-.1Zm2.51.24c.33,0,.66,0,.73-.34A1.83,1.83,0,0,0,55.08,11.43Zm-26.49-.17c-.28,0-.64-.06-.8.17a8.51,8.51,0,0,0,1.75-.17A3.36,3.36,0,0,0,28.59,11.26Zm23.28.17c.08,0,.26,0,.3-.07S51.88,11.33,51.87,11.43Zm.7,0c0-.11,0-.11-.14-.1S52.47,11.43,52.57,11.43Zm.12,0Zm-22.82,0a10,10,0,0,0-2.12.09c0,.35-.1.62,0,.8.17,0,0-.16.07-.19S28,12.06,28,12c.41-.14.95-.15,1.35-.3-.52,0-1.16.08-1.56.09.14-.22.53-.24.83-.26.52,0,1.12,0,1.58,0C30.2,11.3,30,11.43,29.87,11.43Zm-.5.55c.06.11.09-.13,0,0Zm19.39.47c.31,0,.58,0,.69-.24A1,1,0,0,0,48.76,12.45Zm1-.17c.05.06.19.06.16-.07S49.76,12.21,49.76,12.28Zm.78,0c.1,0,.22,0,.24-.07S50.58,12.21,50.54,12.28Zm-.23,0s-.07,0-.07,0S50.31,12.28,50.31,12.25Zm-1.82.13s0,0,0,0Zm14,.07a.09.09,0,0,0-.07-.1A.11.11,0,0,0,62.49,12.45Zm-33.81.09v.07c.09.06.1-.11,0-.1S28.71,12.56,28.68,12.54Zm22.62.17c.43,0,.9.07,1.13-.1C52.07,12.71,51.58,12.49,51.3,12.71ZM28.38,13c.17,0,.36,0,.4-.14s-.14.06-.17-.07.09,0,.1-.07,0-.12-.14-.09A.47.47,0,0,1,28.38,13Zm34.8.69c0,.15.07.29.24.3.12-.22-.25-.44-.27-.73a3,3,0,0,1-.42-.63h-.1A3.79,3.79,0,0,0,63.18,13.7Zm-9.36-.85c.06,0,.17,0,.14-.07S53.82,12.79,53.82,12.85Zm-.49,0Zm-1.8.12Zm-23.11.21c0-.07,0-.14-.09-.14S28.33,13.18,28.42,13.18Zm34.33.06a.09.09,0,0,0-.07-.13C62.7,13.16,62.66,13.27,62.75,13.24Zm-34.14,0c.05.14.05-.12,0,0Zm-.56.07c-.08.11.11-.08,0,0Zm34.94.4a.38.38,0,0,0-.24-.4A.48.48,0,0,0,63,13.67Zm-35,.1c.1,0,.15-.19.24-.1-.09.17-.33.17-.31.43.27-.06.28-.37.53-.43,0-.12.07-.19,0-.26S28,13.53,28,13.77Zm.59-.33s0,0,0,0Zm-2.78,3.64c0,.08,0,.16,0,.19.14,0,.2,0,.31,0a19.67,19.67,0,0,0,1-3.77c-.21,0-.14.35-.36.3-.16.89-.52,1.75-.59,2.62-.18,0-.08.26-.26.26a5.35,5.35,0,0,0,.3-2c-.39.21-.33.66-.5,1.23s-.36.76-.26,1.09a.8.8,0,0,0-.1.23c.06,0,.07.06.07.14a1.06,1.06,0,0,0,.33,0C25.79,17.3,25.75,17.12,25.83,17.08Zm.61-.4c.2-.14.19-.44.26-.69a14.62,14.62,0,0,0,.63-2.51h-.09C27,14.6,26.64,15.66,26.44,16.68ZM24.55,13.6s0,0,0,0Zm4,.07c0,.11.08-.14,0,0Zm.23.17s0,0,0,0,0-.08-.07-.07S28.71,13.82,28.75,13.84Zm-1.36.29c.12,0,.21-.18.23-.33h-.09C27.55,14,27.39,14,27.39,14.13Zm1.13-.27c0,.12.08-.12,0,0Zm34.56,0ZM28.35,14h.07v-.07h-.07Zm-.13.11c.05,0,.11,0,.09-.07h-.07S28.23,14,28.22,14.07Zm12.8.22c.1.06.1-.15,0-.09Zm-16,1.82c-.11.21-.3.61-.19.83.29-.22.22-.72.33-1.23s.57-1.05.33-1.49C25.42,14.88,25.16,15.41,25.07,16.11Zm-3.7-1.45a.2.2,0,0,0,0-.16H21.3C21.3,14.58,21.3,14.65,21.37,14.66Zm3.51.86A.5.5,0,0,0,25,15,1.78,1.78,0,0,0,24.88,15.52Zm31.35.14a.32.32,0,0,0,.1-.31c-.66.35-1.72,0-2.29.36.27.11.8,0,1.09,0-.12.12-.47,0-.63.14a2.3,2.3,0,0,0,2-.2C56.4,15.68,56.37,15.57,56.23,15.66Zm-31.39.23c0-.12.12-.22,0-.3A.27.27,0,0,0,24.84,15.89Zm19-.16c-.08-.06-.27-.17-.4-.07C43.5,15.67,43.72,15.89,43.8,15.73Zm1.66,0c0,.12.22.15.26.09S45.57,15.62,45.46,15.73Zm-20.08.42c0-.13.19-.29.09-.42C25.43,15.84,25.29,16,25.38,16.15ZM24,15.82s0,0,0,0Zm21.83.1c.11,0,.18.21.3.1C46,16,45.84,15.78,45.79,15.92Zm-21.17.66c0-.18.26-.48.14-.59C24.7,16.15,24.54,16.39,24.62,16.58Zm7.94-.5s0,0,0,0Zm22,.14c.32,0,1,.13,1.16-.09C55.41,16.14,54.93,16,54.61,16.22ZM31,16.15c0,.07.16.09.3.07.1.24.66,0,1.23,0A4.72,4.72,0,0,0,31,16.15Zm-5.72.07s0,0,0,0Zm7.54,0c.18.08.16-.12,0,0Zm.7,0s-.1,0-.1,0S33.54,16.25,33.55,16.22Zm2.15,0s-.1,0-.1,0S35.69,16.25,35.7,16.22Zm-10.46.36c0-.1.14-.21,0-.3C25.28,16.37,25.14,16.5,25.24,16.58Zm32.51-.23h.07v-.07h-.07Zm-22.38,0Zm28.28.05c0,.51.48.82.66,1.26.07.16,0,.33.19.4.09-.27-.16-.47-.16-.76a.61.61,0,0,1-.26-.76C63.93,16.55,63.76,16.4,63.65,16.44ZM50,16.84c0-.14.12-.16.09-.33a.3.3,0,0,1-.26,0c-.54,1-1.14,1.77-1.72,2.62.32,0,.76-.4,1-.66a10.89,10.89,0,0,0,1.35-1.85c-.12,0-.12-.07-.23-.07S50.1,16.79,50,16.84Zm-15.55-.23c.08.11.39.12.43,0A.7.7,0,0,0,34.43,16.61Zm-1.42,0s0,0,0,0Zm-6.61.12c0,.14,0-.12,0,0Zm8.43,0s-.1,0-.1,0S34.83,16.81,34.83,16.77Zm.76.07c.08-.08-.11-.08-.1,0S35.6,16.83,35.59,16.84Zm-.86.1c.05,0,.1,0,.14,0S34.75,16.87,34.73,16.94Zm-.23.11s-.07,0-.07,0S34.5,17.08,34.5,17.05Zm-9.72.05Zm-.37,0c-.08.11.11-.09,0,0Zm.43.26c0-.09,0-.14-.07-.17S24.7,17.46,24.84,17.41Zm10.89-.14c0,.11.08-.12,0,0ZM28,17.41a9.32,9.32,0,0,0,1.56-.14A6.24,6.24,0,0,0,28,17.41Zm1.66-.1Zm4,.19a33.66,33.66,0,0,0-3.48-.19A34,34,0,0,0,33.58,17.5Zm-8.6,0c.09.05.09-.14,0-.14S25,17.41,25,17.48Zm2.95-.07c-.2-.09-.18.11,0,0Zm-3.71.4c.14,0,.18-.33,0-.33C24.27,17.61,24.2,17.67,24.22,17.81Zm.56-.27c0,.12.09-.13,0,0Zm9,0s-.07,0-.07,0S33.74,17.54,33.74,17.5Zm.26,0c-.2,0-.07.1,0,0Zm.5.1s0,0,0,0ZM24.22,18a.09.09,0,0,0,.09-.07S24.2,17.9,24.22,18ZM63.35,18c-.2.33.35.46.3.86.26.06.29.37.52.46C63.9,18.91,63.88,18.21,63.35,18Zm-36.46.5c-.09.11-.36,0-.4.19.91-.08,2-.33,3.14-.33.5,0,1.09.18,1.52,0-.14,0-.36,0-.19-.09a11.7,11.7,0,0,0-6.19.82C25.54,19.09,26,18.55,26.89,18.54Zm8.44-.33s0,0,0,0S35.29,18.21,35.33,18.21Zm.07.16h.06s0,0,0-.09H35.4Zm-3.84-.07c-.09,0-.29,0-.33,0C31.37,18.34,31.44,18.37,31.56,18.3Zm4.26,0s-.15-.08-.16,0S35.8,18.43,35.82,18.33Zm27.66.54a.81.81,0,0,0-.35-.57A.92.92,0,0,0,63.48,18.87Zm-31.25-.54s-.1,0-.1,0S32.21,18.37,32.23,18.33Zm.19,0s-.07,0-.07,0S32.42,18.4,32.42,18.37Zm.19,0s-.16,0-.16,0S32.63,18.44,32.61,18.37ZM63,18.63c0-.13-.14-.11-.1-.26h-.1C62.82,18.52,62.91,18.58,63,18.63Zm-31.57-.16c.16,0,.61.09.67-.07C31.92,18.44,31.55,18.32,31.45,18.47Zm.9,0c-.07,0-.06-.1-.17-.07S32.32,18.54,32.35,18.47Zm3.64,0a.85.85,0,0,0-.5,0C35.62,18.48,35.88,18.55,36,18.47Zm-.86.16c0,.2.38.18.31,0-.14,0-.17.05-.31,0a.18.18,0,0,1,.17-.07c0-.17-.29-.06-.3,0S35.09,18.62,35.13,18.63Zm-2-.09Zm30.33,1.15c-.16-.45-.49-.73-.68-1.15h-.1A2.59,2.59,0,0,0,63.48,19.69Zm-33.35-1c.46,0,.86.06,1.32,0A2.28,2.28,0,0,0,30.13,18.66Zm32.42.24c0-.17-.1-.17-.17-.24S62.42,18.9,62.55,18.9Zm-26.66-.2s-.09,0-.09,0S35.89,18.73,35.89,18.7Zm27.43.36c0,.19.12.21.23.26s0,.13,0,.2.1.05.17,0c-.09-.2-.25-.34-.27-.6,0,.07-.15,0-.16.07s-.13-.37-.26-.26C63.11,18.87,63.22,19.06,63.32,19.06ZM29.94,19a2.42,2.42,0,0,1,.89-.13C30.67,18.63,30,18.69,29.94,19Zm-1-.13a.42.42,0,0,0,.6,0C29.41,18.81,29.14,18.83,29,18.83Zm6.33.3c.1,0,.15.11.3.1s0-.14.1-.27C35.53,18.83,35.3,18.85,35.3,19.13Zm26.75-.21h.07v-.07h-.07ZM25.5,21.45s0,0,0,0a2.45,2.45,0,0,0,.59-.4c.21,0,.21-.24.47-.2a.27.27,0,0,0,0,.31,7.89,7.89,0,0,1,2.84-1.07,5.12,5.12,0,0,0,1.39-.23c-.08,0-.14,0-.16-.07a12.27,12.27,0,0,1,1.46-.14c.23,0,.52.09.66-.09-.61-.25-1.39.12-2,0,.05-.09.13-.15.13-.2s.29.05.31-.06a.09.09,0,0,1-.1-.07c.48-.14.88,0,1.3-.14a4.45,4.45,0,0,1-.53,0c0-.1,0-.08,0-.16h-.73c0,.13.1.11.14.16S31,19,31,19.13s.1,0,.1.07c-.18,0-.45-.06-.43.14s.18,0,.19.07c-.58,0-1,.31-1.56.26a.58.58,0,0,0,.5-.24c-.28.06-.59.06-.63.33a.21.21,0,0,1,.19.07,8.13,8.13,0,0,0-3.64.93c0-.06.06-.09.07-.14a2.22,2.22,0,0,0-.85.66c.08.23-.1.26-.14.47.41,0,.49-.35.82-.43C25.6,21.38,25.51,21.38,25.5,21.45Zm37.71-1.7a1.62,1.62,0,0,0-.59-.85A1.07,1.07,0,0,0,63.21,19.75Zm-28.94-.69c-.07,0-.05-.1-.14-.07S34.25,19.14,34.27,19.06ZM30.7,19s-.07,0-.07,0S30.7,19.06,30.7,19Zm3,.06h.1c0-.06,0-.08-.1-.07Zm1.16,0c0,.17.32.18.36.07S35.12,19,35,19C35,19.14,35,19.13,34.87,19.13Zm-6.28-.07c-.07,0-.22,0-.24,0S28.57,19.13,28.59,19.06Zm4.3.1c.07,0,.19,0,.16-.07h-.16Zm1.51,0v-.1h-.09C34.29,19.17,34.33,19.2,34.4,19.2ZM36,19.13Zm25.11,0s0,0,0,0,.23.4.36.23a2.74,2.74,0,0,0-.36-.23s0,0,0,0S61.06,19.13,61.1,19.13Zm-31.59.19c-.36,0-.21.11,0,0s.8,0,1-.14C30.23,19.17,29.62,19.06,29.51,19.32ZM34,19.2c-.09.11.11-.08,0,0Zm-.17.1Zm-1.42.06s-.18-.12-.23,0S32.34,19.5,32.39,19.36Zm1.09-.06s-.07,0-.07,0S33.48,19.32,33.48,19.3Zm-.5.12a3.67,3.67,0,0,1,.4,0C33.36,19.27,33,19.34,33,19.42Zm3-.06Zm-6.19.1h.1c0-.05,0-.08-.1-.07ZM64,19.58c.08,0,.08-.19-.07-.16S63.86,19.58,64,19.58Zm-38.11,0a.26.26,0,0,0,.2-.07C26,19.49,25.87,19.47,25.87,19.56Zm7.31,0h.42C33.56,19.41,33.26,19.53,33.18,19.56Zm.59,0c0,.12,0-.14,0,0Zm28.72.16v-.16a.12.12,0,0,1-.09,0A.11.11,0,0,0,62.49,19.69Zm-1.2-.11Zm-36,.17a.74.74,0,0,0,.49-.17A.66.66,0,0,0,25.31,19.75Zm10.11-.1c.18,0,.55.1.64-.07A2,2,0,0,0,35.42,19.65Zm25.94.1c.1.06.1-.15,0-.1Zm2.22-.06a.18.18,0,0,0,.17.17.22.22,0,0,0,0-.17C63.7,19.68,63.64,19.63,63.58,19.69Zm-37.14.06c-.11,0-.25,0-.26.1a.3.3,0,0,0,.26-.1S26.42,19.71,26.44,19.75Zm9.09.07c.06,0,.11,0,.1-.07h-.07S35.53,19.79,35.53,19.82Zm27.13.07c0-.08,0-.14-.1-.14S62.56,19.9,62.66,19.89Zm-37-.07s0,0,0,0Zm37.94.87c-.16,0-.34-.17-.47-.14a5.06,5.06,0,0,1,1.3,1.35c.14-.61-.54-.7-.66-1.16a.17.17,0,0,0,.13,0c0-.44-.35-.72-.59-1-.07.09.17.31.07.42-.21-.08-.18-.39-.43-.42C63,20.25,63.39,20.36,63.58,20.69Zm-38.25-.8a.36.36,0,0,0,.24-.07C25.47,19.83,25.35,19.79,25.33,19.89Zm7.25-.07c-.2,0-.06.11,0,0Zm1.13.07ZM25.87,20a.17.17,0,0,0,.14-.07C25.93,19.87,25.87,19.9,25.87,20Zm-1.13.56a2.74,2.74,0,0,0,1-.52C25.33,20.11,24.82,20.09,24.74,20.52Zm36.88-.07a.36.36,0,0,0-.3-.36A.45.45,0,0,0,61.62,20.45Zm-36.91-.23c.09,0,.14,0,.17-.1S24.7,20.12,24.71,20.22Zm37.05,0c0,.2.15,0,0,0Zm-36.88.46c.12-.11.34-.12.4-.3C25.16,20.51,24.8,20.54,24.88,20.71Zm-.73-.09a.76.76,0,0,0,.3-.14A.28.28,0,0,0,24.15,20.62Zm37.74.23c0-.05,0-.16-.07-.14S61.84,20.83,61.89,20.85Zm.49.36c.07-.12-.11-.22-.14-.36a.2.2,0,0,1-.16,0C62.11,21,62.27,21.09,62.38,21.21Zm-.22,0c.06-.17-.12-.3-.26-.36C61.94,21.05,62,21.21,62.16,21.24Zm-38.53-.06s0,0,0,0Zm.33.33c-.11-.11-.11.11,0,0ZM51.25,3.78s0,0,.06,0S51.26,3.78,51.25,3.78Zm-45.76.3c.11-.08-.07.11,0,0Zm-.69.43h.07v.07H4.8Zm30.29.09s0,0,.07,0S35.12,4.6,35.09,4.6ZM4.21,5.36s0,0,.07,0S4.23,5.36,4.21,5.36Zm30.19,0c0,.09-.11.07-.19.07A.21.21,0,0,1,34.4,5.33Zm17.3.2s.06,0,.1,0S51.74,5.53,51.7,5.53Zm.3,0a.09.09,0,0,1-.09.07C51.88,5.53,52,5.54,52,5.53Zm.07,0s0,0,.07,0S52,5.62,52.07,5.57Zm-9.33.07c.08.08,0,.26-.14.26S42.73,5.75,42.74,5.64Zm9,1.18c.06-.09.15,0,.14.1S51.8,6.84,51.74,6.82Zm-38.93.59A1.58,1.58,0,0,1,13,7.06c.07.09-.11.24-.14.35ZM4.14,7.15c.08,0,0,.2.09.24S4.12,7.26,4.14,7.15Zm8.17.2Zm22.33,0h.07v.06h-.07Zm.4,0c0,.05-.09.06-.17.06S35,7.35,35,7.35Zm.49,0a.47.47,0,0,1,.43.26A1.7,1.7,0,0,1,35.53,7.35Zm-23.26.06s.05,0,0,0Zm.54,0s0,.07,0,.07S12.77,7.41,12.81,7.41Zm0,.07s0,.07,0,.07S12.74,7.48,12.77,7.48Zm0,.07s0,.07,0,.07S12.71,7.55,12.74,7.55Zm-.07.1s0,0,0,0S12.7,7.65,12.67,7.65Zm0,0c0,.14-.1,0,0,0Zm-.1.16s0,0,0,0Zm0,0c0,.05,0,0,0,0Zm23,.14s0,0,0,0Zm0,0s0,0,0,0S35.52,8,35.53,8ZM3.81,8.67c.09.05-.07.12,0,.23s-.08,0-.14,0S3.79,8.78,3.81,8.67ZM3.94,9c-.08,0-.12,0-.13-.14A.58.58,0,0,1,3.94,9ZM3.48,9s0,0,0,0ZM3.94,9c.24,0,.05.18,0,0Zm49.18.5c.12.07-.11.27.1.26-.11.15-.09.44-.24.56A1.39,1.39,0,0,1,53.12,9.54Zm-31.95.4s0,0,.07,0S21.2,9.92,21.17,9.94ZM53,11c0-.42.29-.52.36-.85.15.36-.41.43-.23.83C53.09,10.94,53.09,11,53,11Zm.93-.33c0-.12,0,.14,0,0ZM53,11c0,.14-.09,0,0,0Zm.38,0c.09,0-.06.11,0,.16l.31-.07c0,.2-.38.15-.5.1S53.37,11.12,53.4,11Zm-1.23.09s0,0,0,0Zm-39,.36s0,0,0,0Zm5.59.17c-.07.11-.22,0,0,0Zm10.71,1.1s0,0,0,0Zm-.95.19s0,0,0,0Zm.36,1c0-.14,0,.12,0,0Zm36.48.69s0,0,.1,0S65.4,14.6,65.36,14.6Zm-37.93.52s.07,0,.07,0S27.46,15.12,27.43,15.12Zm.17.3s0-.14.13-.14S27.69,15.44,27.6,15.42Zm0,0c0,.07-.09.07-.1.14-.15-.08-.21,0-.3.1a.17.17,0,0,1-.14-.14.61.61,0,0,0,.36-.07c0-.06-.09,0-.07-.1s.07,0,.16,0S27.55,15.41,27.6,15.42Zm-26.3.07c.14.22.08.72-.19.73,0,.13.11.15.09.3s-.05,0-.09,0,0,.05,0,.09a1.66,1.66,0,0,1-.17-.49A6.62,6.62,0,0,0,1.3,15.49Zm53.25.17s0,0,.07,0S54.57,15.64,54.55,15.66Zm1.68,0s-.16.11-.19,0S56.14,15.63,56.23,15.66Zm-26.95.07s0,0,.07,0S29.3,15.71,29.28,15.73ZM27.6,16c0-.1.16,0,0,0Zm0,0a.34.34,0,0,1-.2.09C27.42,16,27.47,15.93,27.6,16Zm4.49,0c0,.07-.21,0-.31,0S32.05,16,32.09,16Zm2.71,0s0,0,0,0Zm-34,0H.83v.06H.76Zm65.2.06c0-.13.1,0,0,0Zm0,0c0,.05,0,0,0,0Zm-64.57.14c.06,0,.07,0,.07.07s0,0,0,0S1.39,16.25,1.39,16.22Zm-.66.19c0,.07-.12,0-.16,0S.69,16.37.73,16.41Zm53.35.27s0,0,0,0Zm-.16.07c0-.05,0,0,.1,0S54,16.75,53.92,16.75Zm.3,0c0-.11.09.12,0,0ZM50,16.84s0,0,0,0Zm7.94.21s0,0,.09,0S58,17,57.92,17.05Zm-32.09,0s.06,0,0,0Zm-24.77,0c0,.16-.13,0,0,0Zm48.59.07c.08.07,0,.24-.14.24A2.55,2.55,0,0,1,49.65,17.17Zm8.4,0h.07v.07h-.07Zm-21.85.62a.1.1,0,0,1-.1.07S36.13,17.83,36.2,17.83Zm-.31.14s0,0,0,0S35.89,18,35.89,18ZM.53,18.1s0,0,.07,0S.55,18.1.53,18.1Zm57.76.13h.07v.07h-.07Zm-30,.1a1.11,1.11,0,0,1-.47.07A.53.53,0,0,1,28.31,18.33Zm-1.25.17s.19-.11.23,0S27.17,18.52,27.06,18.5Zm-.17,0c0-.07.13,0,.17,0S27,18.51,26.89,18.54Zm-5.12,2.2c.05-.11.08.14,0,0Zm.33.11s0,.07,0,.07-.16-.05-.16-.14S22,20.87,22.1,20.85Zm4,.2c-.22,0,0-.24,0,0ZM35.4,22.3c-.07.07,0,.17.09.17s.1-.25-.07-.2c0-.22.29-.25.47-.33-.14.13,0,.18.1.17a.48.48,0,0,1-.36.13c0,.27.25.05.36,0,0,.2.12.55-.14.69v.4c0,.07-.14.08-.16.17a1.55,1.55,0,0,1-.36,1.68c-.13,0-.13-.14-.24-.17a14.68,14.68,0,0,0-2.08.53c-.07,0-.07-.05-.09-.07-.76,0-1.58.56-2.22.26a8.37,8.37,0,0,0-1.09.23c-.11,0-.07-.12-.17-.13s-.48.26-.66.06c.12,0,.34.07.33-.09a4.32,4.32,0,0,0-1,0c-.13-.06-.16-.21-.33-.19.06-.07.26,0,.3-.1-.29-.11-.57.1-.86.1-.13,0,0-.09-.06-.14a9.25,9.25,0,0,1-1.69-.07.25.25,0,0,0-.19.14.68.68,0,0,0-.47-.1s.06,0,.07-.07c-.19-.19-.34.18-.63,0,.11-.32.62-.1.85-.33-.29,0-.67.09-1,0,.4-.1.91-.23,1.22,0,.13,0,0-.09,0-.2a2.69,2.69,0,0,0,1.19-.23,4.7,4.7,0,0,0,1.72-.4c-.11-.28-.52.12-.59-.14-.18.25-.72.13-.93.33a1.59,1.59,0,0,0,.57,0c-.14.15-.42.06-.59.13v-.09a1.52,1.52,0,0,1-.83,0c.37-.16,1-.08,1.32-.3-.29-.05-.65.18-.85-.09V24a4.77,4.77,0,0,1,1-.24c-.36-.15.25-.11.4-.23a11.67,11.67,0,0,0-1.73.3c0-.14.25-.05.33-.14-.15-.11-.34.1-.49,0,.05-.18.52-.06.43-.3a.69.69,0,0,1,.3,0s-.06.06-.07.1c.23.05.19-.18.4-.17-.08.14.21,0,.3,0s-.07-.05-.13-.07a6.35,6.35,0,0,1,1.91-.52c.1,0,.14-.11.19-.17,1.35-.31,2.55-.8,3.95-1.08.35.22.88-.34,1.32,0v.16c.16.13.29.11.56.1,0,.15-.26.08-.35.16s.22,0,.09.07-.23.11-.36.2a.31.31,0,0,1,.07.42c.33-.15.43.06.73-.09,0-.06,0-.11-.07-.1s.07,0,.1-.07S35.37,22.3,35.4,22.3Zm-1.19-.23a.87.87,0,0,0,.52-.17A.58.58,0,0,0,34.21,22.07Zm-.83.2c-.19.07-.44.13-.46.26.35-.19.9-.19,1.18-.46A4.4,4.4,0,0,0,33.38,22.27Zm-2.64.07c.11,0,.33,0,.36-.16A.34.34,0,0,0,30.74,22.34Zm5.22.22c0-.08,0-.14-.1-.14S35.86,22.58,36,22.56Zm-6.49.17c.08,0,.23,0,.23-.1S29.48,22.63,29.47,22.73Zm1.27,0a.21.21,0,0,0-.24.09q.2,0,.24-.09S30.72,22.7,30.74,22.73ZM28.52,23c.08,0,.16,0,.16-.1S28.53,22.89,28.52,23Zm0,.14a.19.19,0,0,0,.19-.1A.15.15,0,0,0,28.55,23.1Zm.56.19c.21,0,.43,0,.52-.16C29.48,23.07,29.15,23.13,29.11,23.29Zm-1.23.17c.11.23.72.08.76-.17C28.42,23.37,28.12,23.39,27.88,23.46Zm5.46-.17s-.07,0-.07,0S33.34,23.33,33.34,23.29Zm-.29.14c.1,0,.17,0,.2-.1A.18.18,0,0,0,33.05,23.43Zm-.3.12Zm-5.93.05s-.07,0-.07,0S26.82,23.62,26.82,23.6Zm5.53.09c-.15,0-.28,0-.3.14.08-.07.27,0,.3-.14s.22,0,.26-.09A.54.54,0,0,0,32.35,23.69Zm3.24,0c.08,0,.07-.07.1-.1S35.59,23.65,35.59,23.72Zm-8-.06s-.07,0-.07,0S27.6,23.69,27.6,23.66ZM27,24c.1,0,.26,0,.26-.07A.4.4,0,0,0,27,24Zm-.5.14A1,1,0,0,1,27,24C26.91,23.88,26.55,24,26.53,24.09Zm3.81,1.26a4,4,0,0,0,1-.24c.23,0,.54,0,.66-.19A13.74,13.74,0,0,0,30.34,25.35Zm-2.25,0c-.05,0,0,0,0,0S28.09,25.21,28.09,25.32Zm-3,.05s-.09,0-.09,0S25.1,25.41,25.11,25.37Zm4.69.14a.1.1,0,0,0,.1-.07S29.79,25.44,29.8,25.51Zm-.62.14h.14C29.33,25.51,29.15,25.51,29.18,25.65Zm-.23,0a.11.11,0,0,0,.13-.07C29,25.61,29,25.62,29,25.68Zm6.61-3.88c-.11-.05-.23.11-.23,0S35.58,21.67,35.56,21.8Zm-.47.21H35a.59.59,0,0,1,0-.14C35.09,21.89,35.11,21.93,35.09,22Zm0,0c.24,0,0,.21,0,0Zm-28.21.06H7v.06H6.88Zm28,0a.19.19,0,0,0,0,.09h-.19A.5.5,0,0,1,34.87,22.07Zm1.16,0c.08,0,.14,0,.14.09S36,22.19,36,22.11ZM3,22.13c.07,0,.06.1.17.07s-.08.11-.2.1A.34.34,0,0,0,3,22.13Zm32.12.05c.12-.06,0,.11.09.09-.11.11-.12.13-.33.1C34.86,22.24,35.05,22.3,35.07,22.18Zm.33.12s0,0,0,0S35.41,22.3,35.4,22.3Zm-28.64.43c.07,0,.11,0,.09.09H6.76Zm20.3.56s.05,0,.09,0S27.1,23.29,27.06,23.29Zm-.36.07s0,0,0,0Zm-.83.36c.09-.12,0,.11,0,0Zm-.54.77c.2-.15.6-.11.83-.23,0-.09-.15,0-.09-.1.15.06.19-.11.26,0s-.13.13-.14.24C25.89,24.37,25.65,24.48,25.33,24.49Zm.07-.33s-.11.12,0,.1c-.07.16-.38,0-.56.13A1,1,0,0,1,25.4,24.16Zm-.07.33s0,0,0,0Zm.54,0c0,.13-.09.1-.19.1S25.79,24.5,25.87,24.49Zm-.73.19s0,0,.07,0S25.17,24.67,25.14,24.68Zm1,0c0,.07-.12,0-.16,0S26.09,24.67,26.16,24.68Zm-1.54.07c0-.08.12-.08.16,0C25.09,24.7,24.66,24.84,24.62,24.75Zm1.25-.07a.28.28,0,0,1-.23.1C25.64,24.68,25.76,24.7,25.87,24.68Zm-.56.2c.15-.11.12.09,0,0Zm-1.39.23c0,.1-.09.1-.17.1S23.85,25.13,23.92,25.11Zm.23.26a7.53,7.53,0,0,1-1.13.14A2,2,0,0,1,24.15,25.37Zm.69.11c0,.1-.14,0,0,0Zm-1.94.06s0,0,0,0Zm1.18,0c-.11,0-.41.14-.47,0A1.06,1.06,0,0,1,24.08,25.58Zm-.85,0c0,.2-.25.08-.43.09A.67.67,0,0,1,23.23,25.61Zm3.17,0h.16s0,.09,0,.09-.08.07-.17.07S26.44,25.72,26.4,25.61Zm6.32.07s0,0,0,0Zm-6.85,0s.31-.08.26,0S26,25.69,25.87,25.7Zm6.85,0s0,0,0,0Zm-.14,0a.13.13,0,0,1-.16.1A.24.24,0,0,1,32.58,25.7Z" fill="#fff" fill-rule="evenodd"/></svg>